<?xml version="1.0" standalone="no"?>
<!DOCTYPE svg PUBLIC "-//W3C//DTD SVG 20010904//EN"
 "http://www.w3.org/TR/2001/REC-SVG-20010904/DTD/svg10.dtd">
<svg version="1.0" xmlns="http://www.w3.org/2000/svg"
 width="800.000000pt" height="800.000000pt" viewBox="0 0 800.000000 800.000000"
 preserveAspectRatio="xMidYMid meet">
<metadata>
Created by potrace 1.14, written by Peter Selinger 2001-2017
</metadata>
<g transform="translate(0.000000,800.000000) scale(0.100000,-0.100000)"
fill="#000000" stroke="none">
<path d="M3545 7524 c-854 -116 -1600 -502 -2170 -1124 -500 -545 -792 -1130
-912 -1827 -27 -154 -28 -167 -28 -568 0 -437 1 -456 55 -730 110 -558 372
-1116 718 -1527 597 -708 1344 -1121 2280 -1259 264 -39 813 -34 1092 10 260
42 546 118 771 207 821 323 1461 906 1850 1684 199 399 331 871 359 1288 21
322 10 652 -30 887 -104 604 -358 1184 -715 1630 -106 133 -353 385 -490 499
-357 300 -778 534 -1220 679 -240 79 -441 123 -690 152 -169 19 -724 19 -870
-1z m395 -289 c0 -173 0 -175 -22 -175 -75 0 -327 -25 -464 -46 -321 -49 -570
-126 -843 -260 -204 -101 -383 -218 -571 -375 -216 -181 -358 -335 -555 -603
-263 -360 -457 -810 -530 -1231 -43 -250 -46 -855 -6 -1095 38 -218 102 -443
178 -624 46 -111 195 -401 253 -496 272 -440 832 -907 1320 -1101 318 -126
670 -201 1028 -221 l212 -12 0 -205 0 -206 -127 6 c-547 28 -1048 172 -1553
447 -261 143 -486 316 -740 571 -180 181 -285 307 -407 491 -349 524 -541
1140 -560 1790 -17 611 121 1190 409 1715 167 304 311 495 593 784 161 164
280 269 441 386 516 378 1236 625 1847 634 l97 1 0 -175z m335 165 c603 -43
1195 -256 1705 -613 328 -229 651 -550 862 -857 222 -323 405 -734 507 -1141
105 -415 119 -1003 35 -1434 -144 -735 -513 -1402 -1039 -1878 -451 -407
-1016 -693 -1619 -817 -148 -30 -370 -58 -522 -66 l-141 -7 -6 33 c-4 18 -7
111 -7 206 l0 174 89 0 c437 0 965 121 1328 303 111 56 300 172 420 259 127
91 401 350 518 489 223 266 442 674 549 1025 96 312 117 481 117 920 0 369
-11 481 -66 714 -127 528 -414 1047 -806 1454 -254 264 -510 447 -854 611
-195 93 -576 209 -785 240 -100 14 -424 45 -482 45 l-28 0 0 175 0 175 43 0
c23 0 105 -5 182 -10z m-265 -1755 c0 -1226 -2 -1384 -15 -1379 -13 5 -15 169
-15 1385 0 1219 2 1379 15 1379 13 0 15 -161 15 -1385z m167 1328 c-3 -10 -5
-4 -5 12 0 17 2 24 5 18 2 -7 2 -21 0 -30z m110 -15 c-2 -13 -4 -5 -4 17 -1
22 1 32 4 23 2 -10 2 -28 0 -40z m-708 -8 c1 -13 0 -13 -9 0 -5 8 -9 24 -9 35
l0 20 9 -20 c5 -11 9 -27 9 -35z m-42 -7 c-3 -10 -5 -2 -5 17 0 19 2 27 5 18
2 -10 2 -26 0 -35z m915 17 c-2 -16 -9 -30 -14 -30 -6 0 -7 7 -4 16 3 9 6 22
6 30 0 8 4 14 8 14 5 0 7 -13 4 -30z m-742 0 c0 -11 -4 -20 -10 -20 -5 0 -10
9 -10 20 0 11 5 20 10 20 6 0 10 -9 10 -20z m-323 -37 c-3 -10 -5 -2 -5 17 0
19 2 27 5 18 2 -10 2 -26 0 -35z m230 25 c-3 -8 -6 -5 -6 6 -1 11 2 17 5 13 3
-3 4 -12 1 -19z m1003 18 c0 -3 -4 -8 -10 -11 -5 -3 -10 -1 -10 4 0 6 5 11 10
11 6 0 10 -2 10 -4z m-1151 -48 c1 -5 -3 -8 -9 -8 -5 0 -10 12 -9 28 0 24 1
25 9 7 5 -11 9 -23 9 -27z m-212 0 c-3 -8 -6 -5 -6 6 -1 11 2 17 5 13 3 -3 4
-12 1 -19z m40 -10 c-3 -7 -5 -2 -5 12 0 14 2 19 5 13 2 -7 2 -19 0 -25z
m1313 13 c0 -6 -4 -13 -10 -16 -5 -3 -10 1 -10 9 0 9 5 16 10 16 6 0 10 -4 10
-9z m191 -54 c-13 -13 -15 11 -4 40 7 16 8 15 11 -6 2 -13 -1 -28 -7 -34z m55
8 c-4 -14 -11 -25 -16 -25 -10 0 -4 43 8 65 9 15 14 -14 8 -40z m-1732 0 c4
-20 3 -25 -3 -16 -5 8 -16 11 -25 8 -12 -5 -16 -1 -15 16 0 12 3 16 6 10 7
-19 23 -16 23 4 0 23 6 14 14 -22z m45 -15 c0 -9 -4 -8 -9 5 -5 11 -9 27 -9
35 0 9 4 8 9 -5 5 -11 9 -27 9 -35z m1759 17 c2 -10 -3 -17 -11 -17 -8 0 -18
-7 -21 -16 -12 -31 -16 -8 -5 25 12 33 32 37 37 8z m-1868 -2 c0 -8 -4 -15 -9
-15 -5 0 -11 7 -15 15 -3 9 0 15 9 15 8 0 15 -7 15 -15z m810 -44 l0 -49 -73
-7 c-107 -10 -111 -8 -115 47 -4 55 -3 55 111 57 l77 1 0 -49z m313 43 c35 -6
37 -9 37 -43 0 -54 -9 -62 -63 -55 l-47 7 0 48 c0 54 1 54 73 43z m-543 -30
c6 -14 10 -39 10 -55 0 -27 -2 -29 -42 -29 -24 0 -52 -3 -63 -5 -31 -8 -43 6
-46 55 l-4 45 50 6 c28 3 58 7 68 7 10 1 21 -8 27 -24z m686 -21 c-8 -57 -15
-66 -50 -57 -27 7 -31 18 -20 73 6 28 10 31 42 31 l35 0 -7 -47z m181 23 c2
-2 1 -25 -3 -51 l-7 -48 -70 6 c-38 3 -71 7 -72 9 -2 2 -1 25 2 52 l6 49 70
-6 c38 -3 71 -8 74 -11z m-1550 -18 c-3 -8 -6 -5 -6 6 -1 11 2 17 5 13 3 -3 4
-12 1 -19z m2144 -11 c-10 -9 -11 -8 -5 6 3 10 9 15 12 12 3 -3 0 -11 -7 -18z
m-2201 -33 c0 -23 -18 -24 -24 -1 -11 41 -7 54 9 33 8 -11 15 -25 15 -32z
m-60 21 c0 -8 -2 -15 -4 -15 -2 0 -6 7 -10 15 -3 8 -1 15 4 15 6 0 10 -7 10
-15z m561 -33 c6 -45 -6 -57 -20 -19 -23 62 -24 69 -4 65 13 -2 20 -15 24 -46z
m1279 23 c0 -11 -20 -76 -26 -83 -1 -2 -12 1 -23 7 -20 11 -21 36 -6 87 5 15
55 5 55 -11z m-1339 -25 c7 -22 10 -42 8 -44 -2 -2 -36 -13 -76 -24 l-71 -20
-12 46 c-6 25 -7 49 -3 53 10 10 78 27 115 28 23 1 29 -5 39 -39z m1839 35 c0
-3 -9 -15 -20 -27 -15 -16 -20 -18 -20 -7 0 8 5 20 12 27 12 12 28 16 28 7z
m-400 -27 c0 -5 0 -20 0 -35 0 -44 -13 -56 -49 -48 -34 7 -36 13 -21 66 10 34
12 36 41 30 16 -3 30 -9 29 -13z m-2009 3 c-8 -5 -10 -14 -6 -22 6 -11 5 -11
-5 -2 -14 12 -6 33 13 33 8 0 7 -3 -2 -9z m383 -58 c9 -26 16 -48 16 -49 0 -3
-61 -24 -70 -24 -7 0 -31 74 -31 95 0 9 30 22 58 24 6 1 18 -20 27 -46z m1747
30 c33 -6 35 -15 11 -64 l-17 -36 -45 11 c-48 12 -50 18 -35 84 5 20 10 23 32
17 14 -3 38 -9 54 -12z m-2103 -18 c-3 -3 -9 2 -12 12 -6 14 -5 15 5 6 7 -7
10 -15 7 -18z m2512 21 c0 -2 -8 -10 -17 -17 -16 -13 -17 -12 -4 4 13 16 21
21 21 13z m-105 -16 c-3 -5 -11 -10 -16 -10 -6 0 -7 5 -4 10 3 6 11 10 16 10
6 0 7 -4 4 -10z m-2569 -27 c-10 -10 -19 5 -10 18 6 11 8 11 12 0 2 -7 1 -15
-2 -18z m1232 -20 l-3 -48 -81 -3 c-88 -3 -93 1 -94 65 0 23 16 27 133 31 l48
2 -3 -47z m325 38 c17 -6 17 -8 3 -20 -19 -16 -23 -66 -4 -55 7 4 8 3 4 -4 -8
-13 -45 -16 -70 -6 -11 4 -16 19 -16 50 0 43 1 44 33 43 17 0 40 -4 50 -8z
m-1165 -90 c-3 -14 -97 -56 -106 -47 -3 3 1 12 8 21 13 16 7 30 -12 30 -6 0
-14 10 -19 22 -7 20 -2 24 49 41 l57 19 13 -36 c7 -20 11 -42 10 -50z m637 43
c3 -25 5 -48 2 -50 -2 -3 -34 -7 -70 -11 l-66 -6 -6 37 c-11 55 -3 64 57 69
29 2 58 4 64 5 7 1 15 -18 19 -44z m768 30 c50 -6 57 -9 56 -28 -2 -40 -15
-71 -30 -69 -76 8 -86 13 -81 38 6 33 -16 33 -24 0 -6 -24 -8 -25 -63 -19 -31
4 -57 7 -58 8 -1 1 1 21 4 45 l6 43 66 -6 c36 -3 92 -9 124 -12z m657 -19 c17
-9 30 -18 30 -21 0 -2 -9 -23 -21 -45 -15 -31 -24 -39 -37 -34 -9 4 -29 11
-44 17 l-27 10 22 44 c23 48 33 52 77 29z m290 -25 c-6 -12 -14 -20 -17 -17
-2 3 1 14 8 26 17 26 24 19 9 -9z m40 -15 c-6 -15 -13 -25 -17 -22 -3 4 0 21
8 38 16 39 24 24 9 -16z m-1994 0 c8 -44 -2 -57 -16 -21 -13 34 -13 56 0 56 5
0 12 -16 16 -35z m-867 -35 c0 -13 -1 -13 -8 0 -5 8 -12 26 -15 40 l-7 25 15
-25 c9 -14 15 -32 15 -40z m106 50 c3 -5 1 -10 -4 -10 -6 0 -11 5 -11 10 0 6
2 10 4 10 3 0 8 -4 11 -10z m711 -36 c5 -29 3 -32 -27 -43 -42 -15 -56 -14
-41 1 16 16 15 38 -2 38 -22 0 -38 -24 -24 -38 13 -13 11 -17 -18 -26 -17 -5
-22 0 -32 31 -6 20 -9 39 -7 41 10 10 131 39 137 33 4 -4 10 -21 14 -37z
m1254 6 c-11 -40 -20 -51 -31 -44 -6 3 -7 20 -3 37 9 42 12 47 28 41 11 -4 12
-13 6 -34z m841 20 c-7 -3 -9 -14 -6 -22 6 -15 -11 -35 -21 -26 -8 9 18 68 28
62 7 -4 6 -9 -1 -14z m-2602 -21 c17 -49 14 -57 -29 -79 -51 -26 -54 -26 -68
13 -18 49 -16 55 26 76 50 27 58 26 71 -10z m2331 15 c44 -18 48 -30 25 -74
-18 -35 -27 -36 -76 -12 l-37 17 19 43 c10 23 21 42 23 42 3 0 24 -7 46 -16z
m-471 -3 c11 -7 12 -17 5 -43 -8 -26 -15 -33 -34 -33 -21 0 -25 4 -23 29 4 55
19 68 52 47z m108 -28 c53 -17 54 -18 49 -47 -9 -42 -18 -48 -59 -41 -57 11
-70 25 -62 68 4 20 10 37 13 37 3 0 30 -8 59 -17z m-1637 -42 c8 -29 7 -33
-17 -42 -37 -14 -57 -5 -43 20 13 26 13 31 -5 31 -25 0 -17 18 13 28 32 11 39
6 52 -37z m-764 15 c3 -8 4 -23 2 -33 -3 -13 -7 -9 -15 15 -12 31 1 48 13 18z
m284 -26 c11 -21 20 -43 20 -48 0 -4 -25 -20 -57 -36 -44 -22 -58 -25 -65 -14
-14 21 -38 66 -38 72 0 4 106 63 117 66 2 0 12 -18 23 -40z m1470 -10 l0 -50
-40 0 -40 0 0 50 0 50 40 0 40 0 0 -50z m-487 -2 c3 -24 3 -46 -1 -49 -4 -4
-40 -10 -79 -13 -60 -6 -73 -5 -73 7 0 8 -3 28 -6 44 l-6 30 74 10 c40 6 76
11 79 12 4 0 9 -18 12 -41z m167 -1 l0 -43 -42 -2 c-24 -1 -55 -5 -69 -8 -25
-5 -27 -3 -31 38 -3 24 0 46 6 50 6 4 39 8 74 8 l62 0 0 -43z m402 3 c-4 -43
-20 -63 -41 -51 -9 6 -11 20 -6 50 5 33 11 41 29 41 19 0 21 -4 18 -40z m141
21 c26 -4 49 -10 52 -12 2 -3 -1 -22 -7 -43 l-12 -39 -65 7 c-35 3 -68 9 -71
13 -4 5 -10 25 -13 46 l-6 37 37 -1 c20 0 58 -4 85 -8z m975 -15 l23 -12 -31
-42 c-16 -23 -34 -42 -38 -42 -6 0 -35 17 -60 36 -2 1 6 21 18 44 22 44 31 45
88 16z m-2328 -12 c14 -35 12 -54 -4 -54 -7 0 -16 14 -19 30 -10 46 -31 38
-23 -9 5 -36 4 -39 -22 -44 -31 -6 -42 6 -42 49 0 26 5 33 33 42 52 16 67 14
77 -14z m2017 -5 c48 -17 92 -35 97 -39 10 -10 -20 -80 -33 -80 -13 0 -185 62
-194 70 -9 8 20 80 32 80 5 0 49 -14 98 -31z m542 1 c-13 -16 -25 -28 -27 -25
-7 7 27 55 39 55 5 0 0 -13 -12 -30z m-3269 4 c0 -8 -5 -12 -10 -9 -6 4 -8 11
-5 16 9 14 15 11 15 -7z m1115 -35 c8 -47 9 -44 -31 -52 -29 -6 -32 -4 -38 25
-9 47 -7 56 12 61 43 12 50 7 57 -34z m2215 32 c0 -14 -49 -68 -50 -55 0 11
38 64 46 64 2 0 4 -4 4 -9z m-3282 -26 c-3 -3 -9 2 -12 12 -6 14 -5 15 5 6 7
-7 10 -15 7 -18z m2202 11 c0 -24 -19 -66 -29 -66 -6 0 -9 6 -7 13 3 6 7 24
10 40 7 28 26 38 26 13z m-1680 -72 c0 -15 -11 -26 -40 -39 -22 -10 -42 -16
-45 -14 -2 3 -11 22 -20 42 l-15 37 47 24 48 24 12 -26 c7 -15 12 -36 13 -48z
m447 35 c10 -38 9 -41 -14 -50 -13 -5 -38 -9 -54 -9 -29 0 -30 2 -33 57 -1 10
12 21 34 29 52 19 55 17 67 -27z m2090 33 c15 -10 -31 -92 -52 -92 -26 0 -26
19 1 60 28 42 32 44 51 32z m-759 -23 c5 -28 -16 -69 -37 -69 -28 0 -32 11
-20 54 8 30 14 37 32 34 12 -2 23 -10 25 -19z m1022 12 c0 -5 -7 -11 -14 -14
-10 -4 -13 -1 -9 9 6 15 23 19 23 5z m-3140 -80 c0 -21 -27 -11 -48 19 -25 33
-27 47 -9 53 12 4 57 -53 57 -72z m2221 52 c39 -15 41 -18 35 -51 -7 -44 -10
-47 -43 -34 -15 6 -40 13 -55 16 -16 4 -25 11 -23 19 27 77 24 75 86 50z
m-1554 -31 c13 -33 13 -33 -21 -47 -50 -21 -54 -19 -62 22 -5 29 -3 39 12 50
29 21 56 12 71 -25z m2315 10 l37 -28 -33 -41 -32 -41 -37 22 c-21 13 -40 25
-43 29 -8 8 46 87 60 87 6 0 28 -13 48 -28z m178 3 c-13 -14 -28 -25 -34 -25
-13 0 35 49 48 49 5 1 -1 -10 -14 -24z m-3229 -31 l22 -36 -29 -24 c-16 -13
-32 -23 -36 -24 -9 0 -63 79 -57 84 24 18 56 36 65 36 7 0 22 -16 35 -36z
m276 -49 c-5 -12 -76 -55 -91 -55 -5 0 -48 72 -44 75 2 1 28 16 58 33 l55 31
13 -34 c8 -19 12 -42 9 -50z m1558 65 c43 -6 84 -15 89 -20 11 -11 9 -90 -2
-102 -4 -4 -38 -3 -77 2 -38 4 -109 11 -157 15 l-88 7 0 57 0 58 78 -4 c42 -2
113 -8 157 -13z m-471 -27 c11 -72 20 -68 -139 -81 -80 -7 -153 -16 -163 -19
-14 -6 -15 -4 -4 9 8 10 10 31 6 61 l-6 45 58 7 c33 3 68 7 79 9 11 2 52 4 91
5 l71 1 7 -37z m1454 2 c3 -3 -38 -75 -44 -75 -1 0 -15 5 -29 12 -29 13 -31
27 -10 69 16 29 16 29 48 13 18 -9 33 -18 35 -19z m-2219 -12 c6 -20 9 -37 8
-38 -1 0 -26 -12 -55 -25 -58 -26 -68 -23 -78 26 -5 29 -3 32 43 52 65 29 70
28 82 -15z m1816 -10 c-8 -15 -12 -30 -9 -35 3 -4 1 -8 -5 -8 -18 0 -19 15 -5
48 7 19 18 31 23 28 6 -4 4 -17 -4 -33z m875 18 c-11 -21 -30 -37 -30 -25 0 8
30 44 37 44 2 0 -1 -9 -7 -19z m50 6 c0 -2 -11 -18 -25 -37 -14 -19 -25 -29
-25 -23 0 6 9 22 21 37 18 23 29 32 29 23z m-2352 -52 c2 -22 10 -46 19 -52
15 -12 15 -13 -4 -13 -12 0 -83 -16 -160 -35 -76 -19 -139 -35 -140 -35 0 0
-8 21 -17 47 -10 30 -13 50 -6 57 15 15 242 75 275 73 27 -2 30 -5 33 -42z
m1137 20 c64 -15 166 -44 173 -50 8 -7 -34 -105 -44 -105 -6 0 -46 11 -90 24
-44 13 -106 29 -138 36 -55 11 -57 13 -37 26 14 10 21 26 21 48 0 38 7 48 29
41 9 -2 48 -12 86 -20z m462 -16 c20 -7 21 -12 12 -36 -19 -50 -25 -53 -82
-30 l-53 21 15 42 15 42 36 -15 c19 -8 45 -19 57 -24z m-2903 -18 c-5 -5 -33
30 -34 43 0 4 9 -2 19 -15 11 -13 17 -26 15 -28z m3180 31 c3 -5 -8 -24 -24
-43 -32 -37 -39 -26 -15 21 15 30 29 37 39 22z m-2974 -38 l24 -37 -33 -28
-34 -28 -28 37 c-35 46 -36 53 -1 74 38 24 44 23 72 -18z m526 -49 c-10 -26
-32 -16 -50 21 -9 20 -16 37 -14 38 2 1 14 7 28 13 23 10 26 8 34 -23 4 -19 5
-41 2 -49z m2795 45 c32 -23 59 -43 59 -46 0 -2 -11 -22 -25 -45 l-26 -40 -60
42 c-33 24 -62 47 -65 51 -5 8 41 78 52 78 3 0 32 -18 65 -40z m-3096 -10 c10
-22 16 -42 14 -44 -17 -14 -85 -56 -91 -56 -11 0 -51 71 -43 78 10 10 89 61
96 61 3 1 14 -17 24 -39z m2848 5 c20 -14 37 -28 37 -32 0 -3 -9 -21 -21 -39
-20 -34 -21 -34 -48 -18 -15 9 -37 24 -49 33 l-21 16 20 33 c25 39 34 39 82 7z
m442 -25 c-15 -16 -32 -27 -36 -24 -5 3 6 18 24 34 41 36 50 29 12 -10z
m-3613 -35 l27 -44 -30 -26 c-17 -14 -34 -25 -37 -25 -7 0 -50 51 -65 77 -5 7
7 22 30 37 21 15 40 26 43 26 3 0 17 -21 32 -45z m544 10 c9 -20 15 -37 13
-39 -17 -15 -112 -55 -119 -51 -6 4 -17 19 -25 35 -16 32 -19 29 50 67 54 30
61 29 81 -12z m331 -60 c-4 -10 -128 -75 -144 -75 -11 0 -44 93 -36 101 5 5
41 23 79 39 l69 29 18 -40 c10 -22 16 -46 14 -54z m2079 70 l43 -26 -16 -34
c-18 -38 -24 -40 -53 -25 -12 6 -16 17 -13 30 6 22 -22 29 -30 8 -3 -10 -8
-10 -17 -2 -9 9 -8 19 4 43 20 38 27 38 82 6z m715 8 c-20 -34 -41 -56 -47
-50 -8 7 34 67 47 67 6 0 6 -7 0 -17z m-2091 -408 l0 -414 -37 -6 c-180 -30
-325 -71 -438 -125 -60 -28 -209 -124 -268 -172 l-27 -22 -34 33 -35 34 -43
-33 -43 -34 38 40 37 40 -30 29 c-17 16 -29 34 -28 40 5 19 107 105 180 152
37 24 112 66 167 94 86 43 103 48 120 37 24 -15 67 4 76 33 3 10 -15 68 -40
130 -25 62 -42 115 -38 119 4 4 46 17 93 30 47 12 88 25 92 28 4 4 -8 84 -26
177 -19 94 -31 173 -27 177 7 8 161 25 249 27 l62 1 0 -415z m486 399 l56 -7
-6 -44 c-3 -25 -20 -103 -36 -175 -17 -72 -30 -132 -28 -133 2 -2 47 -18 100
-35 l97 -31 -21 -57 c-11 -31 -31 -81 -44 -111 -33 -74 -31 -88 13 -106 29
-12 42 -13 59 -5 28 15 64 0 217 -93 84 -51 149 -100 221 -168 l101 -96 -72
-74 -71 -73 -47 39 c-246 208 -440 296 -767 350 l-38 6 0 416 0 416 105 -6
c58 -4 130 -10 161 -13z m600 -15 l74 -31 -20 -33 c-11 -18 -20 -42 -20 -53 0
-20 -3 -19 -82 13 -46 18 -82 36 -80 39 1 3 11 26 22 51 11 25 22 45 25 45 4
0 40 -14 81 -31z m1057 5 c10 -10 -32 -64 -50 -64 -10 0 -13 6 -9 16 3 9 6 18
6 20 0 2 7 4 15 4 8 0 15 7 15 15 0 15 12 20 23 9z m-2456 -169 c21 -108 28
-162 21 -166 -6 -4 -54 -17 -107 -29 -53 -12 -107 -26 -120 -31 -16 -7 -26 -7
-31 1 -20 33 -101 303 -93 311 16 16 251 79 283 75 11 -1 23 -43 47 -161z
m970 149 c84 -19 233 -64 233 -70 0 -7 -80 -223 -100 -269 l-18 -42 -86 18
c-123 26 -167 41 -174 58 -9 24 58 321 73 321 2 0 34 -7 72 -16z m1153 -88 c0
-6 -13 -26 -29 -45 l-28 -34 -56 48 c-31 26 -53 53 -50 59 4 6 16 23 26 38
l20 27 59 -41 c32 -22 58 -46 58 -52z m158 71 c10 -8 6 -18 -20 -44 -35 -36
-49 -40 -67 -19 -10 11 -6 22 20 50 30 34 37 36 67 13z m-3827 -19 c21 -28 21
-31 4 -24 -11 4 -22 2 -26 -6 -6 -10 -15 -6 -36 16 -19 19 -22 27 -10 23 11
-4 17 -1 17 8 0 26 28 16 51 -17z m459 0 l20 -33 -37 -32 c-21 -18 -40 -33
-43 -33 -3 0 -10 17 -17 38 -11 34 -10 39 15 65 14 15 29 27 34 27 5 0 17 -15
28 -32z m2906 -8 c24 -17 44 -34 44 -38 -1 -4 -11 -20 -24 -36 l-24 -29 -32
20 c-27 17 -29 21 -16 33 9 7 16 19 16 28 0 12 -6 10 -25 -8 -14 -13 -28 -20
-32 -16 -9 8 26 76 39 76 5 0 29 -14 54 -30z m666 -2 c-12 -12 -25 -18 -29
-14 -4 4 3 16 17 26 32 24 40 16 12 -12z m-3858 -18 c42 -47 48 -71 10 -41
-35 27 -54 26 -115 -5 -28 -14 -53 -23 -55 -21 -5 5 106 107 117 107 4 0 23
-18 43 -40z m800 -46 c6 -19 -2 -26 -53 -53 -33 -17 -66 -29 -73 -26 -7 3 -18
-5 -23 -17 -11 -23 -115 -99 -126 -92 -4 2 -21 26 -38 53 l-30 50 99 61 c55
33 123 72 152 85 l53 24 16 -32 c9 -17 19 -42 23 -53z m-314 9 c0 -6 -10 -19
-22 -28 -22 -15 -24 -14 -45 10 -30 34 -29 47 4 67 27 16 28 16 45 -10 10 -15
18 -32 18 -39z m3185 13 c-25 -33 -45 -46 -45 -29 0 10 63 74 68 69 2 -3 -8
-21 -23 -40z m-682 3 c69 -35 69 -35 42 -90 -14 -27 -31 -49 -38 -49 -7 0 -36
16 -65 36 -50 34 -53 37 -39 57 8 12 19 32 26 45 14 27 21 27 74 1z m-157 -85
c142 -71 262 -160 397 -296 127 -127 131 -98 -34 -265 l-113 -114 -91 91
c-114 115 -236 202 -391 282 l-121 62 34 91 c19 49 48 125 65 167 l30 77 56
-20 c32 -11 107 -45 168 -75z m925 70 l24 -26 -38 -35 -39 -35 -23 22 -24 22
31 39 c17 22 34 39 38 39 4 0 17 -12 31 -26z m-2695 -144 c30 -85 54 -160 54
-165 0 -6 -39 -30 -87 -54 -110 -54 -259 -151 -346 -225 -64 -54 -67 -55 -67
-31 0 19 -17 41 -62 83 -35 31 -90 83 -123 115 l-60 59 35 30 c76 65 190 147
279 202 111 68 278 147 305 143 14 -1 30 -36 72 -157z m-926 146 c0 -2 -8 -10
-17 -17 -16 -13 -17 -12 -4 4 13 16 21 21 21 13z m223 -45 l26 -39 -24 -22
c-22 -21 -25 -21 -47 -6 -30 21 -47 20 -74 -5 -14 -13 -29 -19 -40 -15 -13 5
0 20 57 65 41 33 75 60 75 60 1 1 13 -16 27 -38z m3071 -80 l27 -28 -37 -32
c-47 -38 -66 -27 -39 23 11 20 16 39 11 43 -8 8 -41 -26 -48 -49 -3 -8 -25 4
-57 31 -55 47 -57 54 -18 100 l22 28 56 -44 c30 -23 68 -56 83 -72z m136 92
c0 -12 -64 -73 -76 -73 -25 0 -23 18 6 59 26 36 33 40 50 31 11 -6 20 -14 20
-17z m420 -11 c0 -5 -9 -17 -20 -27 -16 -14 -20 -15 -20 -4 0 16 19 39 32 39
4 0 8 -4 8 -8z m-4339 -29 c13 -15 12 -15 -8 -4 -24 12 -29 21 -14 21 5 0 15
-7 22 -17z m3484 1 c33 -22 32 -34 -12 -83 l-38 -42 -28 23 -28 23 30 48 c34
52 40 55 76 31z m535 -58 c0 -6 -18 -25 -39 -43 l-38 -32 -32 33 -31 32 36 43
37 42 33 -32 c19 -18 34 -38 34 -43z m380 27 c0 -5 -18 -23 -40 -41 -27 -22
-40 -28 -40 -18 0 8 14 26 31 40 30 26 49 33 49 19z m-697 -154 l109 -102 -54
-48 -53 -48 -122 121 -122 122 41 48 40 48 26 -19 c15 -10 76 -65 135 -122z
m-2883 87 c16 -25 30 -48 29 -53 0 -4 -19 -24 -42 -43 -23 -19 -34 -25 -24
-14 20 24 21 33 4 55 -26 34 -54 32 -96 -7 -34 -30 -42 -33 -47 -20 -4 9 -3
20 1 24 29 29 122 101 132 101 7 1 26 -19 43 -43z m3614 26 c4 -7 -56 -62 -68
-62 -15 0 -3 23 22 45 29 26 38 29 46 17z m-4479 -12 c3 -6 -1 -7 -9 -4 -18 7
-21 14 -7 14 6 0 13 -4 16 -10z m-35 -30 c0 -5 -2 -10 -4 -10 -3 0 -8 5 -11
10 -3 6 -1 10 4 10 6 0 11 -4 11 -10z m4440 -119 c0 -6 -19 -24 -42 -41 l-42
-30 -28 27 c-33 31 -34 39 -10 67 17 20 17 20 -9 4 -25 -16 -28 -16 -48 6
l-22 23 43 37 43 36 58 -59 c31 -32 57 -64 57 -70z m115 108 c-4 -5 -13 -9
-21 -9 -9 0 -24 -10 -35 -22 -16 -20 -18 -21 -19 -5 0 9 14 26 32 37 31 18 54
18 43 -1z m-4549 -25 c14 5 15 4 5 -8 -12 -15 -11 -15 -80 21 -1 1 0 7 4 13 5
8 14 5 31 -11 14 -13 29 -19 40 -15z m3961 -52 c-41 -44 -56 -47 -88 -16 l-29
28 37 38 37 38 33 -32 33 -32 -23 -24z m-3457 28 c-6 -11 -15 -18 -21 -14 -6
4 -6 11 2 20 17 21 31 17 19 -6z m-400 -16 c0 -8 -5 -12 -10 -9 -6 4 -8 11 -5
16 9 14 15 11 15 -7z m-30 -29 c11 -13 10 -14 -4 -9 -9 3 -16 10 -16 15 0 13
6 11 20 -6z m4460 5 c0 -5 -5 -10 -11 -10 -5 0 -7 5 -4 10 3 6 8 10 11 10 2 0
4 -4 4 -10z m-4668 -15 c0 -5 -5 -11 -11 -13 -6 -2 -11 4 -11 13 0 9 5 15 11
13 6 -2 11 -8 11 -13z m4333 -60 l-40 -34 -17 22 c-17 21 -17 23 18 56 l36 33
22 -22 21 -21 -40 -34z m383 48 c-15 -15 -31 -23 -35 -19 -4 4 3 16 17 26 37
29 49 24 18 -7z m-4661 -30 c-8 -7 -37 9 -31 19 3 5 12 4 20 -3 8 -6 13 -14
11 -16z m407 3 c19 -7 19 -7 -2 -28 -17 -18 -23 -19 -36 -8 -9 7 -16 18 -16
24 0 17 23 38 29 28 3 -5 15 -12 25 -16z m308 5 c8 12 9 12 6 0 -6 -22 -28
-25 -27 -4 0 12 2 14 6 4 5 -11 7 -11 15 0z m-512 -11 c0 -5 -2 -10 -4 -10 -3
0 -8 5 -11 10 -3 6 -1 10 4 10 6 0 11 -4 11 -10z m4397 -62 c-1 -3 -22 -22
-47 -42 l-44 -35 -28 32 c-15 18 -27 35 -28 39 0 4 21 23 47 43 l48 36 27 -33
c15 -18 26 -36 25 -40z m93 68 c0 -2 -8 -10 -17 -17 -16 -13 -17 -12 -4 4 13
16 21 21 21 13z m-4572 -36 c17 -16 32 -33 32 -37 -1 -5 -16 -26 -34 -47 l-34
-40 -41 27 c-23 15 -41 30 -41 33 0 9 72 94 79 94 3 0 21 -14 39 -30z m1562
-67 l38 -92 -96 -52 c-137 -72 -244 -146 -337 -230 -44 -40 -69 -61 -56 -47
l24 27 -31 30 c-32 33 -56 39 -69 19 -4 -7 -19 -22 -33 -33 -14 -11 -8 -1 13
21 l38 40 -21 26 c-11 15 -20 33 -20 41 0 23 111 119 230 199 103 69 256 151
273 145 5 -1 26 -44 47 -94z m1424 38 c63 -32 152 -85 196 -117 82 -58 279
-239 270 -245 -3 -2 -38 -35 -77 -73 l-71 -68 -86 80 c-94 87 -235 186 -361
253 -44 23 -81 43 -82 44 -4 2 45 121 63 158 8 15 18 27 23 27 5 0 61 -26 125
-59z m1260 25 c15 -23 14 -25 -26 -61 l-40 -37 -24 28 -24 29 37 33 c43 38 56
40 77 8z m-3580 -5 c4 -5 0 -12 -6 -14 -7 -3 -4 -6 6 -6 18 -1 17 -4 -9 -31
-32 -33 -57 -26 -48 13 8 34 45 58 57 38z m-893 -22 c16 -11 29 -25 29 -31 0
-7 -10 -2 -23 10 -13 12 -29 22 -35 22 -7 0 -12 5 -12 10 0 15 9 12 41 -11z
m4327 -37 l43 -57 -38 -32 c-21 -18 -43 -32 -50 -33 -7 0 -30 24 -53 53 l-40
52 41 38 c23 20 44 37 48 37 3 -1 25 -27 49 -58z m537 28 c-10 -11 -25 -20
-34 -20 -12 1 -10 5 8 20 30 26 49 26 26 0z m-4925 -20 c0 -5 -5 -10 -11 -10
-5 0 -7 5 -4 10 3 6 8 10 11 10 2 0 4 -4 4 -10z m666 -35 c-9 -14 -21 -23 -26
-20 -15 9 -12 26 7 47 25 28 40 6 19 -27z m313 -5 c-7 -5 -18 -6 -26 -3 -11 4
-9 11 9 30 l23 25 3 -22 c2 -13 -2 -26 -9 -30z m3989 33 c-10 -2 -18 -8 -18
-13 0 -4 -10 -10 -22 -13 l-23 -6 24 20 c13 10 31 18 40 18 14 -1 13 -2 -1 -6z
m-4904 -24 c-3 -5 -14 -5 -25 1 -26 14 -24 18 6 12 14 -2 22 -8 19 -13z m4556
-43 c0 -12 -61 -66 -74 -66 -2 0 -15 14 -27 32 l-23 31 40 34 39 33 23 -26
c12 -14 22 -31 22 -38z m200 32 c11 -18 20 -35 20 -38 -1 -3 -21 -20 -45 -37
l-44 -33 -19 28 c-10 15 -22 32 -26 39 -6 11 66 71 87 73 4 0 16 -15 27 -32z
m-4330 12 c0 -5 -2 -10 -4 -10 -3 0 -8 5 -11 10 -3 6 -1 10 4 10 6 0 11 -4 11
-10z m-475 -20 c15 -6 25 -13 22 -16 -6 -6 -67 23 -67 32 0 3 4 3 9 0 4 -3 21
-10 36 -16z m160 -9 c3 -5 1 -12 -4 -15 -12 -8 -41 3 -41 15 0 12 37 12 45 0z
m217 -31 c14 0 31 7 38 15 9 10 17 12 23 6 6 -6 -4 -26 -28 -55 -42 -50 -49
-50 -98 2 -25 26 -27 33 -17 52 l12 22 22 -21 c12 -12 34 -21 48 -21z m-398 0
c9 0 16 -4 16 -10 0 -13 -6 -13 -41 5 -17 9 -27 21 -23 27 5 7 11 6 19 -5 7
-10 20 -17 29 -17z m726 26 c0 -2 -8 -10 -17 -17 -16 -13 -17 -12 -4 4 13 16
21 21 21 13z m3572 -98 c92 -132 168 -244 168 -251 0 -3 -23 -20 -51 -37 -43
-26 -54 -29 -64 -18 -29 31 -225 298 -225 306 0 12 86 92 98 92 5 0 38 -42 74
-92z m-4167 32 c-9 -10 -23 -16 -31 -13 -17 6 -17 9 -4 34 9 16 15 17 31 8 19
-10 20 -12 4 -29z m65 -15 c-12 -19 -26 -35 -32 -35 -12 0 -10 5 22 52 31 46
40 31 10 -17z m574 29 c-18 -15 -18 -15 3 -9 17 5 30 -1 50 -22 24 -24 26 -28
11 -31 -10 -2 -18 -8 -18 -13 0 -5 -7 -9 -16 -9 -8 0 -12 5 -9 10 3 6 -1 10
-10 10 -8 0 -18 7 -22 16 -5 13 -7 13 -14 2 -6 -9 -9 -5 -9 13 0 28 16 49 39
49 11 0 10 -4 -5 -16z m3736 -71 c0 -4 -18 -20 -39 -36 l-39 -27 -26 31 c-14
17 -26 34 -26 38 0 4 19 21 42 39 l41 32 24 -35 c12 -18 23 -38 23 -42z
m-4540 33 c16 -20 7 -20 -31 -1 -16 9 -27 20 -24 25 7 12 35 -1 55 -24z m4730
-27 c0 -8 -17 -25 -37 -36 l-38 -21 -17 23 c-24 32 -23 36 20 67 l37 27 17
-22 c10 -12 18 -29 18 -38z m220 6 c0 -5 -19 -23 -41 -39 l-42 -29 -18 24
c-10 13 -19 29 -19 35 0 11 39 42 70 55 15 7 50 -26 50 -46z m-4630 33 c0 -15
-49 -78 -61 -78 -16 0 -10 20 17 56 27 34 44 43 44 22z m283 -24 c3 -4 -7 -26
-24 -50 l-30 -44 -28 19 c-15 11 -34 28 -42 37 -15 19 -16 19 32 -1 10 -4 27
3 45 19 31 27 37 30 47 20z m4481 -29 c-10 -8 -26 -14 -34 -14 -11 0 -10 3 4
14 11 8 27 15 35 15 11 0 10 -4 -5 -15z m-4941 -18 l37 -23 -27 -42 c-15 -23
-31 -42 -36 -42 -4 0 -26 9 -48 21 -38 19 -40 21 -26 42 8 12 20 32 28 45 17
28 25 27 72 -1z m247 11 c0 -7 -11 -26 -24 -43 -20 -24 -27 -28 -37 -18 -10
10 -7 19 16 43 31 32 45 38 45 18z m3788 -35 c21 -27 74 -95 117 -153 l77
-104 -28 -23 c-16 -13 -32 -23 -35 -23 -3 0 -27 31 -52 69 -25 38 -76 106
-112 151 l-66 82 22 24 c12 13 26 24 30 24 4 0 25 -21 47 -47z m817 -3 c21
-41 19 -48 -17 -70 -42 -25 -55 -25 -63 0 -3 11 -13 26 -21 34 -13 13 -10 18
23 40 48 33 59 33 78 -4z m-205 -16 l20 -31 -46 -32 c-25 -18 -47 -31 -49 -29
-3 2 -11 21 -20 41 l-15 37 37 24 c21 14 42 24 46 23 4 -1 17 -16 27 -33z
m-4287 -28 c44 -36 50 -39 58 -23 9 16 12 16 32 2 30 -21 32 -20 81 25 l43 40
27 -35 c18 -23 22 -35 13 -35 -24 0 -80 -67 -74 -89 3 -12 -5 -31 -23 -52
l-27 -33 -54 34 c-30 19 -56 35 -58 37 -2 2 3 11 12 21 18 20 23 52 8 52 -5 0
-18 -11 -29 -25 -11 -14 -23 -25 -27 -25 -13 0 -105 71 -105 82 0 19 52 78 64
71 6 -4 33 -25 59 -47z m4096 10 c12 -18 21 -37 21 -42 0 -10 -82 -64 -98 -64
-10 0 -52 60 -52 74 0 9 82 66 96 66 7 0 22 -15 33 -34z m-4698 8 c12 -14 11
-16 -5 -13 -11 2 -21 10 -24 17 -5 17 13 15 29 -4z m326 -5 c23 -23 -30 -95
-61 -83 -23 9 -20 28 10 63 28 34 35 36 51 20z m833 -76 c0 -8 -9 0 -50 45
l-45 47 48 -45 c26 -24 47 -45 47 -47z m3056 24 c39 -49 110 -149 148 -208
l17 -27 -73 -47 -73 -46 -22 28 c-28 35 -143 188 -162 215 -13 18 -9 24 45 79
32 32 63 59 69 59 5 -1 29 -24 51 -53z m-1716 -92 c0 -131 -1 -135 -22 -140
-13 -3 -64 -14 -115 -24 -120 -26 -224 -70 -335 -143 -49 -32 -94 -56 -100
-52 -5 3 -27 -11 -49 -32 -21 -21 -39 -35 -39 -31 0 5 17 23 37 42 l37 34 -24
26 c-45 49 -58 51 -96 14 -18 -18 -36 -30 -40 -27 -3 3 11 19 30 35 20 15 36
32 36 38 0 5 -16 26 -36 46 l-36 37 68 51 c200 147 426 234 672 260 9 1 12
-32 12 -134z m370 111 c242 -51 431 -143 611 -299 l69 -59 -87 -94 c-48 -52
-91 -94 -96 -94 -5 0 -29 18 -54 40 -80 70 -205 149 -286 180 -43 17 -128 40
-188 52 l-109 23 0 137 c0 104 3 138 13 138 6 0 64 -11 127 -24z m2440 7 c0
-8 -65 -53 -75 -53 -15 0 -1 21 28 39 34 22 47 26 47 14z m-337 -85 c-8 -14
-19 -8 -33 17 -19 36 -34 31 -27 -10 5 -31 3 -37 -24 -50 -16 -9 -34 -13 -39
-10 -23 14 -7 46 42 84 l53 40 17 -32 c9 -18 14 -35 11 -39z m-4820 46 c18 -9
33 -18 35 -19 7 -6 -49 -105 -59 -105 -18 0 -69 30 -69 41 0 20 45 99 57 99 2
0 18 -7 36 -16z m347 -34 c33 -22 60 -44 60 -49 0 -4 -38 -76 -85 -159 l-86
-151 -69 31 c-45 20 -70 37 -70 47 1 14 2 14 11 -1 5 -10 14 -18 19 -18 9 0
100 131 100 143 0 3 -14 1 -31 -5 -16 -6 -33 -8 -36 -4 -5 5 26 86 33 86 2 0
15 -5 29 -12 22 -10 27 -9 40 8 22 29 20 47 -4 33 -10 -7 -26 -9 -35 -6 -15 6
-14 12 9 58 30 58 28 58 115 -1z m4665 -2 c15 -27 15 -28 -27 -49 -40 -21 -42
-21 -56 -3 -34 47 -34 51 11 77 45 27 44 27 72 -25z m164 29 c-2 -1 -19 -13
-37 -25 -19 -13 -36 -21 -39 -18 -8 7 -6 9 37 34 19 12 36 19 39 17 2 -3 2 -6
0 -8z m-4399 -37 c0 -5 -25 -43 -56 -84 -56 -75 -61 -78 -96 -48 -16 13 -15
16 4 47 15 21 28 31 39 28 21 -6 89 43 89 64 0 8 5 11 10 8 6 -3 10 -10 10
-15z m3868 -66 c24 -41 40 -79 37 -85 -7 -10 -99 -59 -112 -59 -10 0 -86 150
-80 157 13 12 93 62 103 62 5 1 29 -33 52 -75z m-4542 52 c3 -8 -4 -32 -16
-55 -22 -45 -31 -53 -23 -21 4 14 0 20 -11 20 -9 0 -16 -7 -16 -15 0 -8 -4
-15 -10 -15 -5 0 -10 2 -10 5 0 8 31 68 42 83 14 16 37 15 44 -2z m744 -61
c24 -31 50 -55 61 -55 14 0 7 -15 -34 -69 l-52 -69 -28 16 c-56 33 -98 74 -92
90 5 13 96 142 101 142 1 0 21 -25 44 -55z m246 13 l29 -33 -32 29 c-31 28
-38 36 -30 36 2 0 16 -15 33 -32z m-1303 3 c17 -17 -11 -20 -42 -5 -17 8 -31
17 -31 20 0 7 64 -6 73 -15z m4175 -100 c45 -63 81 -119 79 -125 -2 -6 -57
-46 -122 -90 l-118 -80 -49 55 c-27 29 -65 73 -85 97 l-36 43 53 54 53 53 69
-81 c92 -107 88 -104 88 -86 0 9 -31 53 -70 100 l-70 84 48 48 c26 26 54 46
62 45 8 -2 52 -54 98 -117z m896 103 c7 -19 -1 -34 -19 -34 -15 0 -28 27 -19
41 9 14 31 10 38 -7z m-4354 -36 c27 -18 50 -36 50 -39 0 -19 -134 -259 -144
-259 -12 0 -114 38 -125 46 -14 11 136 284 156 284 7 0 36 -15 63 -32z m4288
6 c2 -16 -4 -24 -27 -32 -26 -9 -32 -8 -41 8 -14 27 -12 38 8 43 34 10 57 2
60 -19z m270 -13 c22 -39 22 -40 3 -50 -59 -32 -69 -32 -90 3 -12 18 -21 38
-21 43 0 8 57 38 81 42 3 1 15 -17 27 -38z m-5298 -3 c10 -6 7 -7 -10 -2 -14
3 -32 11 -40 16 -10 6 -7 7 10 2 14 -3 32 -11 40 -16z m185 -41 c-13 -45 -28
-77 -36 -77 -14 0 -80 34 -77 39 2 4 11 27 22 53 l18 47 40 -20 c32 -16 38
-24 33 -42z m4563 -34 c28 -54 57 -115 65 -136 l16 -37 -33 -14 c-75 -31 -67
-37 -134 96 -34 68 -62 128 -62 134 0 11 68 53 87 54 6 0 34 -44 61 -97z
m-4807 60 c13 -16 12 -17 -3 -4 -17 13 -22 21 -14 21 2 0 10 -8 17 -17z m1439
-6 c0 -2 -15 -18 -34 -36 -29 -28 -34 -30 -29 -12 3 11 11 21 18 21 7 0 18 7
25 15 12 14 20 19 20 12z m3770 -43 c10 -30 10 -38 -1 -45 -16 -10 -30 3 -47
43 -8 20 -8 28 1 32 27 10 36 4 47 -30z m-4871 -2 c-23 -60 -39 -80 -59 -75
-30 8 -31 16 -13 61 14 38 19 42 48 39 29 -2 32 -4 24 -25z m1002 -8 l37 -37
-39 -49 c-54 -69 -49 -82 10 -24 48 47 49 48 63 27 14 -20 15 -20 31 -3 10 10
14 22 10 27 -5 4 -3 5 3 2 6 -4 19 2 29 13 22 25 31 25 40 3 5 -14 3 -15 -5
-7 -9 9 -21 2 -47 -27 l-36 -40 22 -22 c11 -13 21 -28 21 -33 0 -5 -22 -32
-49 -58 l-49 -48 -110 71 c-61 40 -116 79 -123 87 -9 11 -1 27 42 84 65 86 91
91 150 34z m-419 -2 c16 -14 13 -23 -43 -133 -36 -72 -67 -119 -75 -119 -25 0
-54 20 -54 36 0 19 52 123 97 192 34 54 39 55 75 24z m3777 -103 l61 -117 -37
-15 c-21 -8 -41 -13 -44 -11 -10 6 -109 210 -109 225 0 17 52 51 62 41 3 -4
34 -59 67 -123z m841 121 c-8 -5 -19 -10 -25 -10 -5 0 -3 5 5 10 8 5 20 10 25
10 6 0 3 -5 -5 -10z m-411 -36 c14 -38 9 -48 -24 -58 -17 -5 -23 1 -34 30 -7
19 -11 37 -9 38 8 7 43 25 48 26 4 0 12 -16 19 -36z m311 -90 c0 -9 -41 -34
-55 -34 -5 0 -32 50 -45 85 -9 23 -6 27 23 39 l32 13 22 -46 c13 -25 23 -51
23 -57z m135 98 c-13 -11 -65 -33 -65 -27 0 2 12 11 28 19 30 17 52 21 37 8z
m-5154 -35 c-10 -9 -11 -8 -5 6 3 10 9 15 12 12 3 -3 0 -11 -7 -18z m2211 -12
c4 -83 11 -75 -88 -100 -117 -30 -232 -78 -310 -130 -36 -24 -66 -39 -71 -34
-5 5 -28 -7 -54 -28 l-44 -37 38 40 c43 46 44 54 17 79 -19 17 -19 19 -4 37
27 29 168 108 252 141 60 23 197 59 255 66 4 1 8 -15 9 -34z m2403 -5 c10 -22
16 -42 14 -43 -10 -8 -109 -47 -118 -47 -15 0 -44 61 -34 70 11 11 104 60 113
60 4 0 15 -18 25 -40z m-4009 -7 c29 -21 56 -43 58 -49 4 -10 -74 -197 -87
-210 -5 -5 -129 44 -141 56 -6 6 10 49 47 125 32 63 60 115 63 115 3 0 30 -17
60 -37z m2009 11 c145 -36 290 -114 405 -218 22 -20 40 -40 40 -44 0 -4 -18
-25 -40 -47 l-39 -38 -50 46 c-113 106 -262 179 -453 221 -26 6 -28 10 -28 57
l0 52 53 -7 c28 -4 79 -14 112 -22z m1561 -93 c24 -51 44 -99 44 -105 0 -10
-125 -66 -148 -66 -9 0 -92 177 -92 195 0 17 134 93 143 81 5 -6 28 -53 53
-105z m-2727 92 c-6 -10 -23 -27 -37 -37 -21 -15 -20 -12 7 17 38 41 47 46 30
20z m3470 -79 c2 -43 -27 -35 -48 11 -29 66 -59 59 -40 -9 16 -57 4 -66 -20
-16 -11 25 -21 50 -21 56 0 6 21 19 48 30 l47 20 17 -35 c9 -20 17 -46 17 -57z
m-5176 65 c41 -14 44 -21 22 -73 -10 -24 -22 -36 -35 -36 -19 0 -20 2 -5 30
18 35 19 56 3 66 -11 7 -51 -31 -61 -58 -2 -7 -8 -10 -12 -6 -12 11 25 100 39
94 6 -3 28 -10 49 -17z m5447 -4 c0 -2 -17 -13 -39 -24 -47 -24 -65 -14 -19
11 32 17 58 23 58 13z m-5626 -15 c11 0 16 -3 12 -7 -14 -14 -76 -9 -76 6 0 9
7 11 23 7 12 -3 31 -6 41 -6z m1527 -27 c13 -16 12 -17 -3 -4 -17 13 -22 21
-14 21 2 0 10 -8 17 -17z m3678 -24 c7 -23 15 -47 17 -53 4 -11 -34 -36 -56
-36 -4 0 -16 23 -26 52 -16 49 -16 52 2 65 32 23 50 16 63 -28z m-4911 23 c10
-7 8 -18 -8 -54 -16 -37 -24 -45 -40 -41 -22 6 -21 22 7 76 14 29 20 32 41 19z
m5316 -18 c-55 -19 -66 -16 -19 5 22 10 44 16 49 13 5 -2 -9 -11 -30 -18z
m-5648 1 c20 -8 33 -19 30 -24 -9 -14 -86 9 -86 25 0 18 12 18 56 -1z m1618
-27 l-44 -43 36 -43 c21 -24 42 -41 50 -38 8 3 11 0 8 -8 -7 -18 55 -89 71
-82 8 3 11 -2 8 -12 -2 -10 10 -31 31 -51 34 -33 37 -34 54 -18 10 9 22 17 27
17 4 0 -2 -8 -13 -19 -27 -23 -27 -29 -1 -57 21 -22 21 -27 14 -288 l-7 -266
-64 0 -63 0 -7 45 c-6 45 12 95 36 95 16 0 40 57 40 93 0 65 -72 124 -138 114
-47 -8 -78 -31 -100 -73 l-18 -36 -189 2 c-104 0 -191 2 -193 4 -2 2 29 62 68
133 133 236 251 405 360 510 35 35 68 63 72 63 4 0 -13 -19 -38 -42z m2382 0
c46 -50 144 -178 201 -263 39 -58 223 -386 223 -398 0 -3 -79 -6 -175 -7
l-174 -1 -21 41 c-29 57 -95 88 -151 71 -95 -28 -117 -138 -44 -216 30 -32 35
-43 35 -86 0 -49 -1 -50 -27 -47 -26 3 -30 9 -51 88 -13 47 -34 122 -48 166
-22 75 -24 98 -24 287 l0 205 98 101 c53 56 102 101 108 101 6 0 29 -19 50
-42z m-2777 -8 c41 -30 41 -30 27 -63 -40 -92 -68 -147 -77 -147 -23 0 -89 34
-89 46 0 18 81 194 90 194 4 0 26 -14 49 -30z m3258 -95 c36 -77 38 -71 -45
-104 l-52 -21 -34 68 c-55 109 -55 105 11 146 l57 36 15 -27 c9 -16 30 -59 48
-98z m670 31 c-1 -12 -19 -25 -52 -37 -27 -10 -55 -19 -60 -19 -6 0 -17 17
-24 38 -8 20 -16 42 -18 48 -3 9 63 44 107 57 17 5 51 -57 47 -87z m-4707 78
c0 -28 -25 -94 -36 -94 -8 0 -14 3 -14 7 0 18 34 93 41 93 5 0 9 -3 9 -6z
m-470 -24 c0 -5 -9 -10 -19 -10 -11 0 -23 5 -26 10 -4 6 5 10 19 10 14 0 26
-4 26 -10z m547 0 c25 -9 29 -15 25 -35 -5 -30 8 -32 33 -5 10 11 25 20 32 20
17 0 16 -1 -16 -53 -20 -33 -28 -38 -50 -34 -48 10 -81 26 -81 40 0 14 20 77
24 77 2 0 17 -5 33 -10z m5011 -29 c17 -54 16 -56 -22 -68 l-34 -11 -13 46
c-11 41 -11 46 6 58 33 24 51 17 63 -25z m162 30 c0 -12 -39 -21 -45 -11 -3 5
5 11 17 13 13 2 24 5 26 6 1 0 2 -3 2 -8z m-5680 -21 c0 -5 -2 -10 -4 -10 -3
0 -8 5 -11 10 -3 6 -1 10 4 10 6 0 11 -4 11 -10z m135 -9 c28 -10 50 -24 49
-30 -1 -6 -2 -19 -2 -29 -1 -10 -8 -26 -15 -36 -13 -18 -16 -18 -68 -1 -30 10
-55 19 -57 20 -2 2 37 95 41 95 1 0 25 -9 52 -19z m2545 -293 l0 -301 -23 21
c-13 12 -27 19 -32 15 -4 -5 -5 -2 -1 5 10 17 -4 15 -26 -5 -19 -17 -25 -39
-8 -28 19 12 10 -2 -17 -26 -25 -22 -26 -22 -9 -1 22 26 11 29 -24 6 -14 -8
-4 4 23 28 26 24 47 48 47 53 0 15 -43 55 -60 55 -9 0 -31 -16 -50 -35 -19
-19 -39 -35 -44 -35 -6 1 10 20 35 43 l47 43 -37 43 -36 42 -40 -40 c-21 -23
-44 -41 -50 -41 -5 0 12 19 38 43 l48 42 -40 40 -41 39 -38 -37 c-21 -20 -42
-37 -47 -37 -5 0 11 18 35 39 l45 40 -45 45 -44 46 -36 -35 c-20 -19 -39 -35
-43 -35 -5 0 9 15 29 34 27 25 35 39 31 55 -7 27 30 57 134 106 90 42 190 73
242 74 l37 1 0 -302z m418 260 c91 -32 192 -91 261 -153 48 -43 50 -51 17 -59
-50 -12 -116 -87 -116 -131 0 -9 -78 -102 -172 -207 l-173 -191 -6 64 c-9 85
-10 667 -2 698 5 22 9 23 55 17 27 -4 88 -21 136 -38z m-2390 6 l33 -13 -16
-38 c-9 -21 -19 -41 -23 -45 -7 -7 -100 13 -104 22 -1 3 7 26 17 52 22 51 21
51 93 22z m4252 1 c24 -63 23 -74 -4 -85 -69 -26 -71 -25 -93 28 l-21 50 36
15 c54 22 71 20 82 -8z m459 -6 c13 -39 14 -59 2 -59 -5 0 -15 20 -23 45 -12
35 -12 45 -3 45 7 0 18 -14 24 -31z m-5474 11 c3 -5 16 -10 27 -10 12 0 19 -2
16 -5 -8 -9 -88 6 -88 16 0 12 37 11 45 -1z m1398 -26 c31 -19 57 -39 57 -43
0 -15 -80 -132 -94 -137 -18 -7 -106 31 -106 45 0 6 12 36 26 68 14 32 30 68
35 81 5 12 12 22 17 22 4 0 33 -16 65 -36z m2997 -136 c0 -14 -62 -40 -84 -34
-19 5 -96 106 -96 127 0 5 24 22 53 39 l52 30 37 -77 c21 -43 38 -81 38 -85z
m1040 76 c0 -2 -6 -4 -13 -4 -8 0 -19 17 -25 39 -18 58 -14 61 13 12 14 -23
25 -45 25 -47z m-5104 52 c6 -16 -21 -86 -33 -86 -28 1 -34 18 -22 59 12 42
43 57 55 27z m4568 -72 c5 -18 1 -24 -25 -33 -18 -6 -35 -11 -39 -11 -8 0 -44
89 -39 95 2 2 20 10 39 17 38 16 37 18 64 -68z m-4016 34 c2 -8 -2 -27 -8 -42
-9 -25 -14 -28 -42 -22 -42 8 -43 10 -28 48 22 54 30 61 54 45 12 -8 22 -21
24 -29z m4453 1 c14 -45 5 -59 -37 -59 -16 0 -24 10 -32 39 -7 21 -12 41 -12
44 0 5 26 12 57 16 7 0 18 -17 24 -40z m-4913 13 c10 -7 10 -16 -1 -48 -8 -21
-19 -39 -26 -38 -47 4 -46 2 -20 72 9 23 25 28 47 14z m5338 -7 c-11 -8 -25
-15 -30 -15 -6 0 -2 7 8 15 11 8 25 15 30 15 6 0 2 -7 -8 -15z m-3906 -30
c-18 -19 -35 -33 -38 -31 -4 5 58 66 66 66 3 0 -9 -16 -28 -35z m2970 -143
c34 -102 50 -163 46 -180 -18 -86 -18 -93 -3 -116 15 -22 15 -25 -1 -31 -27
-10 -232 -27 -292 -23 l-55 3 -54 95 c-30 52 -71 124 -92 160 -21 36 -39 71
-41 79 -4 18 424 193 434 177 3 -6 30 -80 58 -164z m394 146 c12 -48 7 -56
-50 -78 -61 -22 -76 -21 -50 5 19 19 12 37 -12 33 -36 -6 -15 27 28 44 61 23
77 22 84 -4z m-5249 -10 c-6 -16 -40 -14 -51 4 -3 5 5 6 20 2 18 -4 26 -2 26
7 0 7 2 10 5 7 3 -3 3 -12 0 -20z m550 12 c3 -5 -1 -25 -9 -44 -11 -26 -19
-34 -31 -30 -10 4 -14 13 -10 28 4 11 9 29 11 39 6 18 29 23 39 7z m576 -49
c193 -79 239 -100 239 -110 0 -10 -173 -298 -197 -328 l-18 -23 -155 16 c-85
8 -156 17 -158 19 -2 2 4 18 13 35 16 30 16 35 0 70 -16 36 -16 38 30 181 53
162 70 199 89 199 7 0 78 -27 157 -59z m4522 4 c17 -49 17 -50 -29 -59 -31 -7
-32 -6 -43 40 -13 52 -6 64 36 64 16 0 25 -10 36 -45z m162 35 c-3 -5 -13 -10
-21 -10 -8 0 -12 5 -9 10 3 6 13 10 21 10 8 0 12 -4 9 -10z m-5191 -22 c-15
-51 -24 -68 -34 -68 -13 0 -12 6 1 53 6 22 16 37 25 37 11 0 13 -6 8 -22z
m-454 2 c17 -9 18 -12 3 -50 -16 -41 -22 -44 -60 -34 -21 6 -21 7 -6 50 15 45
29 52 63 34z m560 -11 c27 -6 50 -14 50 -17 0 -30 -24 -82 -37 -82 -9 0 -13 6
-10 14 7 19 -3 28 -18 16 -18 -15 -77 -1 -71 17 4 8 9 26 12 39 7 28 7 28 74
13z m4368 -26 c6 -20 10 -37 9 -38 -10 -3 -65 -24 -78 -29 -11 -5 -19 1 -27
19 -20 43 -15 61 21 73 55 17 63 14 75 -25z m452 -4 c13 -46 9 -51 -37 -67
-31 -10 -31 -10 -42 33 -14 57 -15 54 12 65 44 17 56 12 67 -31z m207 9 c-3
-7 -5 -2 -5 12 0 14 2 19 5 13 2 -7 2 -19 0 -25z m-5522 -10 c-4 -13 -14 -34
-23 -48 -13 -20 -17 -22 -20 -8 -4 20 25 78 39 78 6 0 8 -9 4 -22z m649 -9 c5
-5 2 -27 -8 -54 -14 -34 -23 -45 -39 -45 -45 0 -51 13 -32 69 15 48 18 51 43
45 15 -4 31 -10 36 -15z m-585 -42 c-7 -21 -17 -33 -25 -30 -7 2 -11 10 -9 16
22 63 26 70 36 60 8 -8 7 -21 -2 -46z m4665 10 c11 -42 5 -52 -35 -62 -25 -6
-28 -3 -43 41 -9 26 -16 49 -16 50 0 5 45 12 65 10 14 -1 23 -12 29 -39z m455
12 c17 -49 14 -58 -25 -65 -41 -7 -54 4 -54 47 0 17 8 30 23 37 35 17 44 14
56 -19z m-4995 -9 c4 -5 3 -25 -4 -45 -10 -31 -16 -36 -34 -31 -11 3 -24 6
-28 6 -12 0 -10 36 4 65 9 19 16 24 32 19 12 -3 25 -10 30 -14z m3316 -69 l0
-79 -43 42 -43 41 35 38 c19 20 39 37 43 37 4 0 8 -35 8 -79z m1552 34 c11
-42 6 -49 -43 -64 -24 -7 -51 -14 -60 -17 -12 -3 -19 6 -27 36 -11 45 -13 44
63 69 44 14 58 9 67 -24z m-4773 -27 c-5 -18 -9 -34 -9 -35 0 -2 -9 -3 -20 -3
-23 0 -23 2 -9 53 9 32 12 36 29 27 16 -8 17 -15 9 -42z m-531 32 c12 0 22 -5
22 -11 0 -14 -70 -3 -85 13 -7 7 -2 9 15 4 14 -3 35 -6 48 -6z m592 -19 c0
-31 -15 -71 -26 -71 -17 0 -17 8 -3 49 10 28 29 43 29 22z m5106 -18 c3 -16 7
-34 10 -41 3 -11 -49 -42 -70 -42 -5 0 -26 67 -26 82 0 6 48 24 72 27 4 1 10
-11 14 -26z m-5557 8 c12 -8 12 -15 -1 -47 -16 -39 -33 -50 -55 -36 -9 6 -9
18 -1 50 11 42 27 52 57 33z m579 -12 c25 -10 26 -14 11 -58 -12 -34 -20 -35
-84 -11 -27 10 -28 13 -19 59 6 30 9 32 38 25 17 -4 41 -10 54 -15z m1382 18
c0 -2 -19 -21 -42 -42 l-43 -40 40 43 c36 39 45 47 45 39z m3033 -48 c2 -30
-1 -34 -36 -42 -45 -11 -46 -10 -54 36 -5 33 -4 35 33 44 46 12 55 6 57 -38z
m-5169 32 c3 -5 15 -7 26 -4 11 3 20 0 20 -6 0 -12 -23 -14 -69 -5 -17 4 -28
10 -25 15 7 12 41 12 48 0z m246 -15 c0 -7 -8 -31 -17 -52 -12 -29 -18 -34
-21 -21 -7 32 8 87 23 87 8 0 15 -6 15 -14z m5378 -38 c10 -36 9 -37 -20 -43
-37 -8 -46 0 -50 44 -3 30 1 36 22 41 31 9 36 4 48 -42z m-577 0 c17 -65 25
-71 85 -63 59 7 55 13 75 -93 7 -37 8 -67 3 -71 -12 -11 -178 -21 -193 -12 -8
5 -7 13 4 27 22 29 18 72 -9 97 -22 21 -46 81 -46 119 0 14 34 34 62 37 4 1
12 -18 19 -41z m-4728 2 c-6 -53 -14 -70 -33 -70 -27 0 -30 10 -17 58 9 34 15
42 32 40 15 -2 19 -10 18 -28z m562 9 c15 -15 -13 -99 -45 -136 -34 -39 -35
-44 -15 -82 l14 -29 -42 -5 c-23 -4 -69 -3 -102 1 l-60 7 2 50 c1 28 5 69 8
91 l6 42 57 -14 c83 -20 89 -18 97 19 15 66 23 79 48 72 12 -4 26 -11 32 -16z
m4635 -15 c14 -36 13 -67 -2 -62 -15 5 -29 88 -16 88 5 0 13 -12 18 -26z
m-5495 6 c23 -10 13 -13 -30 -10 -40 2 -58 20 -19 19 16 0 38 -4 49 -9z m422
-14 c3 -2 -7 -16 -22 -31 -16 -14 -26 -28 -23 -31 3 -3 25 -6 49 -7 43 -2 44
-1 47 31 3 31 6 33 29 27 14 -3 39 -9 56 -12 l30 -6 -6 -90 c-3 -49 -8 -92
-12 -95 -8 -8 -248 17 -258 27 -8 8 4 97 24 172 9 36 10 37 45 29 20 -5 38
-11 41 -14z m5024 -32 l-3 -57 36 6 c34 5 36 5 42 -31 3 -20 8 -44 10 -53 4
-14 -12 -18 -103 -28 -60 -6 -129 -14 -154 -17 -52 -7 -51 -10 -65 113 -6 61
-6 63 20 73 15 5 44 13 66 16 36 6 38 5 45 -25 6 -28 11 -32 33 -29 24 3 27 7
24 37 -3 35 9 51 38 51 12 0 14 -11 11 -56z m-3350 9 c13 -16 12 -17 -3 -4
-17 13 -22 21 -14 21 2 0 10 -8 17 -17z m79 -28 c-43 -44 -50 -50 -50 -41 0 6
84 86 90 86 2 0 -16 -20 -40 -45z m-2187 8 c-7 -2 -19 -2 -25 0 -7 3 -2 5 12
5 14 0 19 -2 13 -5z m3635 -27 c64 -55 142 -261 142 -377 l0 -59 -98 0 -99 0
30 60 c22 45 31 79 35 133 l4 72 -52 78 c-49 76 -51 80 -34 98 23 25 37 24 72
-5z m2229 18 c-3 -3 -12 -4 -19 -1 -8 3 -5 6 6 6 11 1 17 -2 13 -5z m-5704
-15 c38 -10 39 -11 32 -47 -10 -57 -26 -64 -19 -9 8 59 -13 66 -22 7 -8 -48
-12 -52 -53 -44 -34 7 -38 21 -20 73 12 34 23 37 82 20z m1956 -54 c1 -5 18
-28 40 -50 34 -36 38 -44 33 -81 -6 -54 21 -84 75 -84 26 0 45 -8 64 -26 l28
-27 45 39 c25 22 45 45 46 52 0 6 8 12 18 12 11 0 -2 -18 -41 -53 -32 -28 -57
-57 -57 -63 0 -7 15 -25 34 -42 19 -17 32 -33 29 -36 -4 -3 -1 -6 5 -6 7 0 12
-4 12 -10 0 -6 -71 -10 -194 -10 -168 0 -195 2 -200 16 -3 9 -6 110 -6 226 l0
210 34 -29 c19 -15 35 -32 35 -38z m3651 24 c6 -23 9 -43 6 -46 -2 -3 -24 -7
-48 -9 -34 -4 -39 -3 -20 5 12 6 22 19 22 31 0 12 -9 24 -22 29 -23 9 -23 9
22 24 27 9 29 7 40 -34z m-102 -58 c9 -5 -4 -10 -35 -14 -26 -3 -49 -4 -49 -4
-1 1 -4 23 -8 49 l-7 47 33 3 c31 3 34 0 43 -35 6 -21 16 -41 23 -46z m-5383
19 c0 -43 -1 -45 -30 -45 -28 0 -30 3 -29 33 3 49 11 64 36 60 20 -3 23 -9 23
-48z m2035 27 c0 -2 -12 -14 -27 -28 -20 -18 -24 -19 -13 -4 18 24 40 42 40
32z m-60 -51 c0 -2 -8 -10 -17 -17 -16 -13 -17 -12 -4 4 13 16 21 21 21 13z
m-2286 -32 c9 -3 16 -13 16 -21 0 -12 -7 -14 -31 -9 -17 3 -38 6 -45 6 -8 0
-14 7 -14 15 0 16 43 21 74 9z m5981 -3 c-17 -15 -95 -18 -95 -4 0 9 16 13 52
13 31 0 48 -4 43 -9z m-3555 -4 c0 -2 -9 -12 -20 -22 -24 -21 -27 -14 -4 9 15
15 24 20 24 13z m1085 -72 c3 -16 8 -43 12 -58 8 -39 -21 -107 -60 -145 l-34
-33 -116 3 -117 3 23 26 c12 14 74 83 137 153 l114 127 17 -23 c10 -12 20 -36
24 -53z m-3366 59 c31 -7 32 -8 29 -58 l-3 -51 -42 -3 -43 -3 0 60 c0 66 1 66
59 55z m5665 -25 c14 -70 10 -79 -34 -79 l-40 0 0 48 c0 56 4 62 40 62 23 0
29 -5 34 -31z m-5506 -46 l3 -53 -32 0 c-31 0 -31 1 -25 38 3 20 6 45 6 55 0
13 6 18 23 15 19 -3 22 -10 25 -55z m5366 35 c12 -45 7 -68 -16 -77 -29 -11
-38 2 -38 57 0 38 2 42 24 42 16 0 26 -7 30 -22z m315 -2 c-2 -2 -24 -6 -47
-10 -33 -5 -43 -3 -40 6 5 15 81 27 87 15 1 -5 1 -10 0 -11z m-5998 4 c17 0
28 -4 25 -8 -7 -11 -86 -2 -86 10 0 6 7 7 16 4 9 -3 29 -6 45 -6z m5554 -40
c0 -43 -1 -45 -32 -48 -32 -3 -33 -2 -33 32 0 38 23 69 49 64 12 -2 16 -15 16
-48z m-5115 -10 c0 -43 -3 -50 -20 -50 -17 0 -20 7 -20 50 0 43 3 50 20 50 17
0 20 -7 20 -50z m4980 1 l0 -48 -46 -7 c-26 -3 -55 -6 -65 -6 -22 0 -33 31
-24 70 6 25 11 29 48 33 95 8 87 12 87 -42z m-4811 30 c10 -6 12 -20 8 -46 -3
-21 -8 -40 -11 -42 -3 -3 -26 -2 -51 1 l-45 7 0 45 0 44 43 0 c23 0 48 -4 56
-9z m180 -17 l84 -7 -6 -100 c-3 -54 -10 -104 -15 -109 -6 -6 -29 -8 -56 -4
l-46 7 0 65 c0 61 -1 64 -24 64 -14 0 -36 4 -50 10 -21 8 -26 16 -26 43 0 40
8 50 35 43 11 -3 58 -8 104 -12z m4459 -31 c-3 -48 -3 -48 -43 -53 l-40 -5 -3
-62 -3 -63 -53 0 -54 0 -7 96 c-4 52 -4 98 0 102 3 4 48 12 98 18 51 6 96 12
100 13 4 0 7 -20 5 -46z m-5258 17 c0 -5 -13 -10 -30 -10 -16 0 -30 5 -30 10
0 6 14 10 30 10 17 0 30 -4 30 -10z m6015 0 c4 -6 -7 -10 -24 -10 -17 0 -31 5
-31 10 0 6 11 10 24 10 14 0 28 -4 31 -10z m-4915 -15 c85 -8 259 -18 385 -22
l230 -6 42 -31 c40 -30 42 -34 43 -83 l0 -53 -450 0 -450 0 0 68 c0 97 9 142
29 142 9 0 86 -7 171 -15z m3928 -92 l3 -103 -447 0 -446 0 4 54 c4 45 10 58
39 84 31 29 40 31 104 32 92 1 456 20 570 29 50 5 108 8 130 7 l40 -1 3 -102z
m912 97 c0 -5 -4 -10 -10 -10 -5 0 -10 5 -10 10 0 6 5 10 10 10 6 0 10 -4 10
-10z m-3091 -12 c-2 -2 -17 -14 -34 -28 l-30 -25 29 32 c16 18 32 31 34 28 3
-3 3 -6 1 -7z m-252 -63 c0 -8 -4 -12 -9 -9 -10 7 -58 -34 -58 -48 0 -5 4 -7
8 -4 5 3 9 -1 9 -9 0 -11 -4 -12 -13 -4 -7 6 -19 7 -26 3 -7 -4 4 11 26 34 21
22 36 45 32 50 -3 6 2 8 12 5 10 -2 19 -11 19 -18z m-2617 -31 c0 -2 -7 -4
-15 -4 -8 0 -15 4 -15 10 0 5 7 7 15 4 8 -4 15 -8 15 -10z m6035 6 c-3 -5 -12
-10 -18 -10 -7 0 -6 4 3 10 19 12 23 12 15 0z m-75 -45 c0 -25 -4 -45 -10 -45
-11 0 -14 73 -3 83 11 12 13 8 13 -38z m-5910 -5 c0 -22 -4 -40 -10 -40 -11 0
-14 63 -3 73 11 12 13 8 13 -33z m100 6 c0 -19 -4 -38 -10 -41 -6 -4 -10 10
-10 34 0 23 5 41 10 41 6 0 10 -15 10 -34z m5570 -6 c0 -36 -2 -40 -25 -40
-22 0 -25 4 -25 40 0 36 3 40 25 40 23 0 25 -4 25 -40z m96 18 c-3 -13 -6 -32
-6 -43 0 -17 -2 -17 -10 -5 -16 25 -12 70 6 70 12 0 15 -6 10 -22z m64 -12 c0
-19 -4 -38 -10 -41 -6 -4 -10 10 -10 34 0 23 5 41 10 41 6 0 10 -15 10 -34z
m-5670 -11 c0 -19 -4 -35 -10 -35 -5 0 -10 16 -10 35 0 19 5 35 10 35 6 0 10
-16 10 -35z m140 0 c0 -31 -3 -35 -25 -35 -22 0 -25 4 -25 35 0 31 3 35 25 35
22 0 25 -4 25 -35z m120 0 c0 -28 -4 -35 -20 -35 -16 0 -20 7 -20 35 0 28 4
35 20 35 16 0 20 -7 20 -35z m110 -6 c0 -19 -5 -29 -15 -29 -15 0 -22 50 -9
63 12 12 24 -4 24 -34z m4800 5 c0 -28 -3 -35 -17 -32 -31 6 -29 68 2 68 11 0
15 -10 15 -36z m70 0 c0 -24 -4 -34 -12 -32 -24 8 -22 68 2 68 5 0 10 -16 10
-36z m140 0 c0 -31 -3 -35 -22 -32 -18 2 -24 11 -26 36 -3 29 -1 32 22 32 23
0 26 -4 26 -36z m-5597 5 c3 -12 0 -22 -9 -26 -20 -8 -27 2 -19 26 8 27 21 27
28 0z m647 -15 c0 -24 -14 -32 -25 -14 -9 14 4 52 16 45 5 -4 9 -17 9 -31z
m70 5 c0 -17 -4 -28 -10 -24 -5 3 -10 17 -10 31 0 13 5 24 10 24 6 0 10 -14
10 -31z m4567 -16 c-3 -10 -5 -2 -5 17 0 19 2 27 5 18 2 -10 2 -26 0 -35z
m753 17 c0 -30 -13 -40 -25 -20 -8 13 4 50 16 50 5 0 9 -13 9 -30z m-3020 6
c0 -2 -8 -10 -17 -17 -16 -13 -17 -12 -4 4 13 16 21 21 21 13z m-310 -9 c0 -2
-10 -12 -21 -23 -22 -19 -22 -19 -8 4 12 19 29 30 29 19z m310 -111 c0 -2 -8
-10 -17 -17 -16 -13 -17 -12 -4 4 13 16 21 21 21 13z m-605 -47 c-302 -9
-1939 -8 -2080 1 -60 3 435 7 1100 6 666 0 1107 -3 980 -7z m1520 1 c7 -11
-245 -12 -365 0 -55 5 -16 7 142 8 136 1 219 -2 223 -8z m1775 -1 c-536 -11
-1588 -10 -1595 1 -4 7 317 9 957 8 699 -1 874 -4 638 -9z m-2690 -75 c0 -3
-7 -1 -15 6 -8 7 -15 17 -15 22 0 5 7 3 15 -6 8 -8 15 -18 15 -22z m-1432
-176 c13 -84 22 -156 22 -160 0 -9 -120 -71 -125 -66 -5 4 -25 270 -25 325 0
45 6 50 71 52 l35 1 22 -152z m242 47 l0 -105 -89 -45 -89 -44 -12 52 c-6 29
-14 93 -17 144 l-6 92 44 4 c24 2 72 4 107 5 l62 2 0 -105z m1958 98 l72 -5 0
-179 c0 -164 -1 -179 -17 -179 -10 0 -42 -23 -72 -50 l-55 -50 -102 108 -102
107 32 26 c31 26 31 26 55 8 33 -26 77 -24 106 6 31 30 32 64 4 100 -19 23
-28 26 -66 23 -41 -3 -47 0 -91 45 l-47 47 105 0 c58 -1 138 -4 178 -7z m786
1 c16 -6 23 -44 9 -44 -5 0 -41 7 -81 17 -45 10 -67 20 -60 25 15 9 109 11
132 2z m-3664 -46 c0 -24 3 -73 6 -109 l7 -66 -52 -13 c-29 -7 -54 -11 -56 -9
-1 2 -6 57 -10 122 l-7 117 56 0 56 0 0 -42z m168 -50 l-3 -93 -59 -13 c-32
-7 -61 -10 -64 -7 -3 2 -7 50 -10 105 l-5 100 72 0 72 0 -3 -92z m149 25 c-7
-69 -16 -83 -54 -83 -22 0 -23 4 -23 75 l0 75 41 0 42 0 -6 -67z m203 65 c3
-80 22 -336 26 -353 5 -20 0 -27 -35 -44 -22 -12 -46 -21 -54 -21 -21 0 -66
198 -74 319 l-6 101 71 0 c40 0 72 -1 72 -2z m620 -36 c0 -36 -3 -40 -63 -75
-35 -20 -67 -37 -70 -37 -4 0 -7 34 -7 75 l0 75 70 0 70 0 0 -38z m538 -114
c-79 -83 -152 -156 -161 -162 -13 -8 -24 -3 -54 25 -84 80 -111 94 -180 94
-35 0 -63 4 -63 9 0 6 12 22 26 37 28 29 24 54 -7 44 -17 -6 -19 -1 -19 49 l0
56 301 0 302 0 -145 -152z m1470 124 c30 -25 33 -32 30 -74 l-3 -47 -65 37
c-60 35 -65 41 -68 75 -3 37 -3 37 35 37 26 0 48 -9 71 -28z m682 -18 c0 -32
-4 -44 -12 -42 -7 2 -34 10 -60 18 -42 13 -48 17 -48 42 0 28 1 28 60 28 l60
0 0 -46z m120 -29 l0 -75 -35 17 c-34 16 -35 18 -35 75 l0 58 35 0 35 0 0 -75z
m206 23 c-3 -29 -6 -78 -6 -110 l0 -56 -57 15 c-32 8 -61 20 -65 26 -4 7 -8
49 -8 95 l0 82 71 0 72 0 -7 -52z m122 -63 c-2 -63 -7 -117 -11 -121 -3 -3
-23 -2 -44 3 l-38 9 -3 59 c-2 33 -1 84 3 113 l6 52 46 0 46 0 -5 -115z m132
60 c0 -51 -2 -55 -23 -55 -31 0 -47 18 -47 51 0 45 10 59 41 59 28 0 29 -1 29
-55z m-5260 0 c-7 -58 -24 -63 -28 -7 -2 28 -8 42 -18 42 -10 0 -14 -12 -14
-45 0 -33 -4 -45 -15 -45 -10 0 -15 10 -15 29 0 16 -3 36 -6 44 -6 16 13 23
71 26 31 1 31 1 25 -44z m92 -5 c-3 -35 -8 -50 -18 -50 -10 0 -14 14 -14 50 0
41 3 50 18 50 14 0 16 -8 14 -50z m140 -5 c-4 -53 -5 -55 -33 -55 -28 0 -29 2
-29 49 0 43 -3 50 -22 54 -13 2 2 5 32 6 l55 1 -3 -55z m178 -1 l0 -55 -47 3
-48 3 -3 47 c-3 39 -7 47 -25 51 -12 2 11 5 51 6 l72 1 0 -56z m140 0 l0 -56
-32 6 c-17 3 -33 7 -34 9 -1 1 -5 23 -9 50 l-7 47 41 0 41 0 0 -56z m128 9
c-3 -46 -4 -48 -35 -51 l-33 -3 0 50 0 51 36 0 35 0 -3 -47z m4732 -3 l0 -50
-34 0 c-38 0 -46 12 -46 66 0 33 1 34 40 34 l40 0 0 -50z m150 -5 c0 -59 -5
-63 -57 -49 -20 6 -23 13 -23 55 l0 49 40 0 40 0 0 -55z m133 48 c-20 -4 -23
-11 -23 -54 0 -46 -2 -49 -25 -49 -24 0 -25 3 -25 55 l0 55 48 -1 c26 -1 37
-4 25 -6z m307 -37 c0 -46 -13 -68 -24 -40 -3 9 -6 29 -6 45 0 22 -5 29 -20
29 -17 0 -20 -7 -20 -45 0 -45 -12 -60 -24 -29 -3 9 -6 29 -6 45 0 26 -4 29
-30 29 -29 0 -30 -2 -30 -45 0 -57 -18 -59 -22 -2 -3 37 -6 42 -28 42 -22 0
-25 -5 -28 -42 -4 -60 -22 -54 -22 7 l0 50 130 0 130 0 0 -44z m-1697 -112
c-5 -66 -15 -114 -25 -114 -5 0 -48 21 -94 46 l-84 46 0 52 0 52 103 -26 c101
-27 102 -28 100 -56z m-1509 54 c-3 -5 -10 -6 -15 -3 -5 4 -9 -11 -9 -33 0
-113 -86 -213 -198 -231 -29 -4 -54 -6 -56 -3 -8 8 253 279 269 279 8 0 12 -4
9 -9z m306 2 c0 -5 -5 -10 -11 -10 -5 0 -7 5 -4 10 3 6 8 10 11 10 2 0 4 -4 4
-10z m1018 -142 c79 -45 146 -87 149 -95 12 -32 -79 -203 -153 -285 -31 -34
-33 -35 -46 -18 -7 10 -53 62 -102 115 -84 90 -88 96 -70 109 18 14 18 15 1
33 -14 16 -17 40 -17 140 0 66 3 123 6 126 4 4 25 -5 48 -19 23 -14 106 -61
184 -106z m-970 96 c15 -15 14 -16 -7 -9 -30 9 -64 -20 -55 -49 4 -15 3 -17
-4 -7 -5 7 -15 10 -21 7 -22 -14 -10 4 27 38 20 20 38 36 40 36 2 0 11 -7 20
-16z m1286 -10 c33 -8 65 -19 70 -24 4 -4 5 -30 1 -58 -5 -36 -11 -49 -22 -48
-8 0 -20 -7 -26 -16 -9 -13 -7 -21 7 -36 28 -32 5 -32 -64 0 -36 17 -66 32
-68 33 -2 2 4 37 12 79 9 41 16 78 16 81 0 7 6 7 74 -11z m-948 -6 c5 -7 3 -8
-5 -3 -7 4 -23 -3 -39 -16 l-27 -24 24 28 c27 30 36 33 47 15z m-1541 -38 c21
0 19 -12 -5 -33 -21 -17 -19 -37 2 -37 6 0 20 7 30 17 17 16 18 8 18 -208 l0
-224 -40 -45 -40 -45 -51 55 c-90 97 -143 172 -197 280 l-53 105 33 18 c18 10
87 49 153 86 108 61 121 66 127 49 4 -10 14 -18 23 -18z m-1260 -11 c8 -35 8
-35 -26 -44 -24 -6 -27 -3 -32 27 -6 41 -2 48 28 48 18 0 25 -7 30 -31z m4565
-3 c0 -41 -9 -49 -45 -40 -19 5 -25 13 -25 33 0 35 6 41 42 41 25 0 28 -3 28
-34z m-4835 -41 c0 -58 0 -59 -32 -66 -17 -3 -36 -3 -41 0 -6 3 -13 32 -17 63
l-7 57 33 4 c63 8 64 7 64 -58z m143 18 c3 -38 1 -43 -22 -49 -44 -11 -56 1
-56 51 l0 46 38 -3 c36 -3 37 -4 40 -45z m661 10 c5 -21 19 -73 30 -116 l19
-78 -46 -30 c-73 -46 -67 -54 -112 130 -12 46 -19 88 -17 94 4 13 62 35 94 36
18 1 24 -7 32 -36z m3398 10 c32 -13 34 -16 27 -46 -16 -75 -46 -157 -57 -157
-18 0 -32 13 -32 29 0 11 -12 22 -43 38 -3 1 8 68 24 141 5 25 12 25 81 -5z
m793 -27 c0 -30 -4 -57 -8 -60 -5 -3 -27 0 -51 6 -41 10 -43 12 -37 41 3 16 6
38 6 48 0 16 8 19 45 19 l45 0 0 -54z m147 40 c3 -3 -16 -118 -20 -122 -2 -2
-20 -1 -40 3 -36 5 -37 7 -37 47 0 76 6 85 53 79 23 -3 43 -7 44 -7z m-5564
-5 c13 -1 17 -10 17 -38 0 -50 -8 -58 -52 -62 -48 -3 -50 16 -3 25 31 5 35 9
29 28 -9 30 -20 40 -39 32 -13 -5 -15 -9 -6 -20 9 -11 7 -15 -9 -19 -17 -4
-20 0 -20 23 0 28 16 39 50 34 8 -1 23 -3 33 -3z m197 -51 c0 -38 -4 -60 -11
-60 -8 0 -10 -12 -6 -35 6 -37 4 -38 -57 -47 -23 -4 -31 19 -41 125 l-7 77 61
0 61 0 0 -60z m81 -20 c4 -41 2 -79 -3 -85 -5 -6 -7 0 -6 15 4 33 -24 33 -33
0 -4 -15 -7 11 -8 63 -1 86 0 88 22 85 20 -3 23 -10 28 -78z m5399 22 l0 -59
-30 5 c-28 4 -30 7 -30 51 0 54 4 61 37 61 21 0 23 -4 23 -58z m150 36 c-1
-50 -20 -172 -29 -181 -5 -5 -23 -6 -41 -2 -29 6 -31 9 -24 38 3 18 7 36 8 41
0 6 -7 12 -16 14 -14 3 -18 -3 -18 -25 0 -15 -4 -34 -9 -42 -16 -25 -19 4 -5
54 7 28 13 67 14 88 l0 37 60 0 c56 0 60 -2 60 -22z m93 16 c18 -7 10 -44 -9
-44 -8 0 -14 10 -14 25 0 27 1 28 23 19z m75 -28 c-4 -31 -38 -34 -38 -3 0 29
7 37 27 30 8 -3 13 -15 11 -27z m-2763 4 c10 -11 16 -20 13 -20 -3 0 -13 9
-23 20 -10 11 -16 20 -13 20 3 0 13 -9 23 -20z m-277 -10 c-7 -10 -14 -17 -17
-15 -4 4 18 35 25 35 2 0 -1 -9 -8 -20z m-1859 -112 c18 -68 33 -129 34 -137
2 -12 -99 -61 -124 -61 -13 0 -59 164 -72 251 l-5 37 51 15 c86 25 80 30 116
-105z m3652 76 c46 -23 50 -28 44 -51 -3 -14 -8 -38 -12 -53 -4 -24 -11 -30
-47 -35 -22 -3 -54 -9 -70 -12 -27 -5 -28 -3 -22 18 3 13 14 54 23 92 9 37 21
67 25 67 5 0 31 -12 59 -26z m-3837 -150 c21 -80 36 -147 34 -148 -1 -2 -13
-8 -24 -14 -26 -14 -36 -5 -53 51 -7 20 -16 37 -20 37 -12 0 -113 -19 -131
-25 -12 -4 -21 16 -39 90 -14 52 -22 97 -20 100 3 2 16 6 29 7 20 3 25 -5 42
-55 15 -43 24 -57 37 -55 13 3 16 16 15 70 l-2 66 42 10 c22 5 44 10 47 11 3
0 23 -65 43 -145z m4196 111 c-1 -33 -18 -33 -49 -1 l-33 34 41 -11 c23 -6 41
-16 41 -22z m880 20 c0 -11 -12 -15 -50 -15 -40 0 -48 3 -44 15 4 10 20 15 50
15 32 0 44 -4 44 -15z m-2853 -62 c34 -37 65 -73 67 -80 8 -19 30 -16 52 8 14
16 16 23 6 26 -6 3 -9 9 -6 15 4 7 9 6 14 -2 6 -10 14 -8 34 6 14 11 26 23 26
27 0 14 -27 36 -36 29 -5 -4 -2 1 5 11 7 9 16 17 19 17 3 0 3 -3 -1 -6 -8 -8
15 -31 35 -35 27 -7 204 -202 200 -221 -2 -10 -9 -18 -16 -18 -18 0 -49 -37
-41 -49 3 -6 0 -9 -7 -6 -14 6 -58 -29 -58 -45 0 -40 -82 34 -194 174 -26 34
-50 63 -52 65 -2 3 -15 -6 -28 -18 -19 -18 -25 -19 -29 -8 -3 9 0 14 10 13 8
0 20 7 26 16 10 15 3 27 -46 76 -31 32 -57 61 -57 65 0 17 19 3 77 -60z m1739
7 c44 -31 56 -50 30 -50 -7 0 -34 -3 -58 -6 l-46 -6 11 46 c6 25 12 46 14 46
3 0 24 -14 49 -30z m370 18 c4 -5 -25 -118 -35 -136 -5 -9 -15 -2 -33 23 -23
33 -24 40 -15 81 11 45 11 46 45 40 19 -3 36 -7 38 -8z m-2411 -366 l-7 -124
-37 7 c-74 14 -228 68 -276 97 -81 50 -163 117 -170 139 -5 16 1 30 25 54 30
31 34 32 68 23 61 -17 185 -4 246 26 55 27 131 95 143 130 11 29 16 -203 8
-352z m-2229 312 c7 -41 -1 -50 -54 -60 -39 -8 -38 -9 -45 38 -5 35 -4 37 31
46 58 15 61 14 68 -24z m941 -237 c-73 -54 -156 -119 -184 -144 -30 -25 -58
-41 -64 -37 -19 11 -121 233 -115 249 5 14 61 46 105 60 22 7 23 5 16 -24 -15
-67 55 -110 91 -56 20 31 11 60 -26 76 -16 8 -26 17 -23 22 3 6 60 36 127 68
l121 58 42 -86 41 -86 -131 -100z m3823 267 c32 -7 32 -7 27 -57 -4 -27 -9
-52 -12 -55 -13 -14 -29 22 -26 59 2 28 -1 39 -8 35 -6 -4 -11 -23 -11 -42 0
-35 -18 -45 -49 -25 -12 8 -13 16 -2 50 13 44 20 47 81 35z m-3136 -36 l37
-33 -36 -35 c-35 -34 -37 -34 -51 -16 -21 29 -28 84 -14 101 17 21 22 19 64
-17z m3269 3 c24 -9 25 -12 15 -53 -12 -56 -21 -64 -54 -49 -24 11 -26 15 -20
53 10 62 14 66 59 49z m-5049 -17 c14 -36 6 -64 -18 -70 -14 -3 -30 -3 -35 1
-15 9 -14 72 2 78 24 10 45 7 51 -9z m3301 -4 c-10 -11 -22 -20 -28 -20 -5 0
1 9 14 20 31 25 37 25 14 0z m563 -10 c17 -28 76 -27 95 1 14 19 17 20 44 5
16 -8 35 -21 42 -29 10 -13 1 -16 -64 -22 -56 -6 -92 -16 -132 -37 -30 -16
-57 -27 -60 -24 -6 6 47 126 56 126 3 0 12 -9 19 -20z m-4014 -16 c11 -29 6
-81 -9 -94 -19 -16 -35 -4 -35 26 0 15 -6 24 -16 24 -13 0 -15 -7 -10 -34 7
-34 6 -34 -41 -44 -34 -8 -50 -7 -54 0 -8 13 -22 98 -17 103 3 2 145 32 164
34 7 0 15 -6 18 -15z m5363 8 c10 -7 10 -19 0 -61 -11 -48 -14 -52 -37 -46
-37 9 -39 15 -27 68 12 48 31 60 64 39z m101 -18 c21 -6 23 -11 17 -48 -12
-76 -10 -74 -65 -63 -47 9 -48 10 -35 31 7 11 16 36 20 54 7 33 18 38 63 26z
m-2808 -270 c0 -167 -3 -253 -10 -249 -6 4 -10 100 -10 256 0 159 4 249 10
249 6 0 10 -92 10 -256z m2913 219 c-5 -33 -23 -46 -23 -17 0 16 20 58 25 52
1 -1 0 -18 -2 -35z m-5826 15 c-2 -7 -11 -13 -19 -13 -8 0 -22 -5 -29 -11 -17
-13 -38 -12 -41 1 -2 5 15 15 37 21 52 16 57 16 52 2z m5912 -4 c2 -2 2 -6 -1
-9 -9 -10 -58 6 -52 16 5 9 41 3 53 -7z m-5323 -29 c9 -49 2 -60 -50 -78 l-45
-15 -7 44 c-7 51 -5 54 39 71 49 18 56 16 63 -22z m4732 5 c6 0 -10 -64 -17
-73 -4 -4 -28 0 -54 9 -49 17 -58 35 -37 74 10 18 13 18 58 5 26 -8 48 -15 50
-15z m-2113 -72 c39 -40 83 -87 99 -104 l28 -32 -64 -31 c-68 -33 -234 -78
-246 -67 -4 4 -9 74 -10 154 -4 145 -4 147 15 129 25 -22 45 -22 74 3 13 10
26 19 29 20 3 0 37 -33 75 -72z m2695 51 c0 -12 -47 -12 -54 0 -3 4 -3 10 0
13 7 8 54 -3 54 -13z m-5910 -4 c-28 -16 -80 -21 -64 -6 10 10 39 18 69 19 17
1 17 -1 -5 -13z m440 -20 c0 -18 -5 -25 -20 -25 -10 0 -23 -7 -28 -16 -8 -13
-10 -10 -14 16 -4 25 -1 33 16 40 35 15 46 11 46 -15z m4984 15 c23 -9 24 -12
14 -42 -15 -47 -24 -53 -52 -40 -23 10 -24 13 -14 51 11 44 14 46 52 31z
m-1102 -73 c6 -11 -11 -4 -41 19 -34 26 -47 40 -38 46 12 7 61 -32 79 -65z
m-2616 1 c27 -35 72 -91 101 -124 l51 -61 -74 -74 -74 -73 -31 29 c-39 37
-174 198 -189 224 -9 17 0 27 73 80 45 33 85 60 88 61 3 0 28 -28 55 -62z
m-1690 25 c-10 -10 -19 5 -10 18 6 11 8 11 12 0 2 -7 1 -15 -2 -18z m1137 -70
c26 -54 58 -118 72 -143 l25 -45 -22 -18 c-49 -38 -79 -50 -94 -35 -15 15
-144 261 -144 274 0 8 94 62 111 63 3 1 27 -43 52 -96z m3516 88 c12 -8 12
-14 2 -39 -10 -23 -17 -28 -35 -25 -31 6 -41 -12 -23 -40 13 -19 13 -26 -1
-54 -13 -28 -17 -30 -38 -21 -30 14 -54 65 -47 101 9 44 55 87 95 87 18 0 39
-4 47 -9z m1151 -1 c0 -5 -5 -10 -11 -10 -5 0 -7 5 -4 10 3 6 8 10 11 10 2 0
4 -4 4 -10z m40 0 c0 -5 -5 -10 -11 -10 -5 0 -7 5 -4 10 3 6 8 10 11 10 2 0 4
-4 4 -10z m-5574 -24 c8 -32 2 -69 -13 -73 -13 -5 -38 72 -28 87 11 18 35 10
41 -14z m3980 -18 c55 -43 56 -61 2 -51 -34 6 -83 57 -75 77 9 22 12 21 73
-26z m1224 -2 c-6 -20 -15 -36 -20 -36 -5 0 -1 18 7 40 20 49 30 45 13 -4z
m-5520 25 c0 -11 -26 -22 -34 -14 -12 12 -5 23 14 23 11 0 20 -4 20 -9z m788
-20 c4 -27 -20 -51 -49 -51 -23 0 -37 59 -18 71 27 17 64 6 67 -20z m1294 -3
c-9 -9 -12 -7 -12 12 0 19 3 21 12 12 9 -9 9 -15 0 -24z m1828 17 c-7 -8 -17
-15 -22 -15 -6 0 -5 7 2 15 7 8 17 15 22 15 6 0 5 -7 -2 -15z m1710 -4 c0 -11
-4 -23 -10 -26 -5 -3 -10 -19 -10 -36 0 -28 -13 -39 -25 -20 -9 15 18 101 32
101 7 0 13 -9 13 -19z m-5375 -13 c14 -61 11 -72 -25 -90 -47 -23 -47 -23 -59
15 -20 63 -18 69 19 83 50 18 59 17 65 -8z m4515 -45 c0 -63 -40 -113 -89
-113 -19 0 -17 7 22 89 36 76 44 87 55 73 6 -9 12 -31 12 -49z m1160 46 c0
-13 -13 -11 -35 5 -18 13 -18 14 8 9 15 -3 27 -9 27 -14z m-5454 -15 c-24 -17
-46 -18 -46 -3 0 6 6 9 14 6 8 -3 20 1 27 9 6 8 15 12 18 8 3 -3 -3 -12 -13
-20z m5267 7 c7 -7 -8 -83 -19 -99 -1 -2 -22 2 -47 9 l-45 11 12 31 c7 18 16
40 20 51 5 15 13 17 38 12 18 -3 36 -10 41 -15z m-5064 -28 c15 -53 16 -52
-31 -73 -64 -29 -74 -26 -86 22 -6 23 -10 43 -9 43 16 9 104 44 109 45 4 0 12
-17 17 -37z m4656 7 c3 -4 -1 -25 -9 -46 -15 -41 -14 -42 -40 33 l-15 41 30
-10 c16 -5 31 -14 34 -18z m-4260 -137 c42 -80 74 -152 71 -158 -2 -7 -18 -22
-34 -34 l-30 -21 -25 39 c-14 21 -46 77 -72 124 l-47 87 37 17 c42 20 45 50 7
69 -22 11 -18 20 10 23 3 1 41 -65 83 -146z m-129 102 c2 -28 -13 -34 -23 -9
-3 9 0 20 8 25 8 5 14 9 14 9 0 0 1 -11 1 -25z m-56 -16 c0 -19 71 -153 123
-233 l51 -79 -59 -54 -60 -54 -17 21 c-23 29 -178 335 -178 352 0 13 119 68
133 61 4 -2 7 -9 7 -14z m3270 -35 c0 -15 -59 -88 -83 -103 -40 -26 -34 3 9
46 42 42 45 49 39 82 l-6 36 20 -25 c12 -14 21 -30 21 -36z m1281 46 c5 0 9
-15 10 -32 l1 -33 12 28 c10 23 14 25 29 14 15 -10 16 -17 6 -47 -6 -19 -15
-38 -19 -43 -3 -4 -30 2 -58 14 -45 19 -52 25 -46 43 18 58 25 68 40 62 9 -3
20 -6 25 -6z m474 -8 c-3 -3 -11 0 -18 7 -9 10 -8 11 6 5 10 -3 15 -9 12 -12z
m-5888 2 c-3 -3 -12 -4 -19 -1 -8 3 -5 6 6 6 11 1 17 -2 13 -5z m492 -41 c12
-42 6 -49 -47 -59 -40 -8 -44 -4 -46 42 -1 33 2 38 34 49 43 15 47 13 59 -32z
m1018 -15 c22 -29 73 -91 113 -137 l72 -83 -68 -69 c-38 -38 -75 -69 -84 -69
-27 0 -241 235 -239 263 0 9 155 147 165 147 1 0 20 -24 41 -52z m3397 17 l37
-35 -27 -50 c-31 -56 -50 -59 -91 -14 l-23 25 27 54 c15 30 30 55 34 55 3 0
23 -16 43 -35z m-4889 5 c3 -5 1 -10 -4 -10 -6 0 -11 5 -11 10 0 6 2 10 4 10
3 0 8 -4 11 -10z m323 -49 c7 -21 12 -41 12 -44 0 -6 -125 -57 -140 -57 -10 0
-24 30 -36 75 -5 22 -1 25 58 44 88 28 93 27 106 -18z m1879 -9 l51 -47 -91
-127 c-51 -70 -109 -152 -131 -183 -21 -31 -41 -53 -45 -50 -3 4 -41 39 -84
78 l-78 71 153 153 c84 84 157 153 163 153 5 -1 33 -22 62 -48z m1263 13 c18
-19 31 -37 29 -40 -3 -2 -23 13 -44 35 -22 22 -35 40 -29 40 6 0 25 -16 44
-35z m2134 15 l66 -21 -20 -52 c-11 -29 -20 -53 -20 -54 0 0 -9 1 -20 4 -31 8
-43 28 -25 43 17 14 20 40 5 40 -6 0 -16 -12 -22 -26 -10 -22 -17 -25 -42 -20
-16 4 -31 8 -34 10 -6 7 29 96 38 96 4 0 38 -9 74 -20z m-1884 -44 c93 -108
150 -161 159 -147 15 23 33 3 18 -20 -10 -17 -9 -22 6 -33 9 -7 17 -17 17 -21
0 -5 -11 2 -25 15 l-25 23 -25 -23 c-13 -12 -22 -28 -18 -34 3 -6 2 -8 -2 -3
-5 4 -19 -3 -32 -15 -12 -12 -26 -18 -30 -14 -5 4 17 29 47 56 l54 47 -78 84
c-95 103 -102 107 -128 81 -16 -16 -18 -23 -9 -41 10 -17 9 -20 -4 -15 -8 4
-15 10 -15 16 0 5 -6 6 -12 2 -7 -4 4 11 25 32 30 33 35 42 25 53 -11 11 -10
12 2 6 8 -5 31 -27 50 -49z m-3052 9 c19 -42 14 -51 -38 -73 l-51 -21 -9 25
c-17 43 -12 54 33 74 54 24 52 24 65 -5z m-593 -14 c-15 -13 -75 -31 -75 -22
0 4 15 13 33 19 42 13 53 14 42 3z m4855 -35 l-23 -21 19 33 c10 18 20 28 23
21 2 -6 -7 -21 -19 -33z m882 30 c19 -4 26 -11 22 -21 -5 -11 -11 -12 -24 -5
-28 15 -40 12 -40 -10 0 -15 7 -20 25 -20 14 0 25 -5 25 -11 0 -6 -7 -8 -16
-5 -9 3 -27 9 -40 12 -24 6 -34 24 -13 24 7 0 9 10 5 26 -6 21 -4 25 11 21 10
-3 30 -8 45 -11z m-2462 -76 c0 -10 -3 -10 -15 0 -16 13 -35 6 -35 -14 0 -13
-78 -38 -179 -56 -89 -17 -91 -16 -91 34 l0 43 58 7 c31 4 91 20 132 35 l74
27 28 -32 c15 -17 28 -37 28 -44z m-2831 48 c24 -64 23 -68 -4 -78 -66 -25
-70 -24 -85 19 -7 23 -11 43 -9 44 4 3 80 35 87 36 1 1 6 -9 11 -21z m4864 6
c26 -9 47 -18 47 -20 0 -3 -11 -27 -25 -54 l-25 -50 -45 22 c-48 23 -55 41
-35 92 11 30 20 31 83 10z m-5288 -24 c-4 -6 -13 -9 -20 -6 -8 3 -15 1 -17 -3
-2 -5 -13 -12 -25 -15 -17 -5 -23 -3 -23 8 0 9 15 18 43 24 47 10 52 9 42 -8z
m4535 16 c0 -3 -4 -8 -10 -11 -5 -3 -10 -1 -10 4 0 6 5 11 10 11 6 0 10 -2 10
-4z m-2190 -92 c62 -28 230 -74 273 -74 18 0 39 -11 58 -29 l29 -29 0 -551 0
-551 -49 0 c-47 0 -253 19 -258 24 -1 1 11 62 28 135 16 74 27 136 25 139 -3
2 -49 15 -102 28 -53 13 -98 25 -101 27 -2 2 16 55 41 118 65 170 64 154 10
175 -27 10 -49 14 -51 9 -14 -39 -20 -38 -137 23 -130 68 -256 147 -256 160 0
12 175 273 259 386 l71 96 53 -30 c28 -17 77 -42 107 -56z m1139 64 c8 3 11 0
7 -6 -4 -6 15 -35 41 -64 89 -98 98 -124 12 -36 -81 84 -138 155 -93 117 10
-9 25 -14 33 -11z m521 18 c0 -3 -4 -8 -10 -11 -5 -3 -10 -1 -10 4 0 6 5 11
10 11 6 0 10 -2 10 -4z m-1580 -45 c41 -17 69 -30 62 -30 -16 -1 -172 59 -172
65 0 7 18 1 110 -35z m2195 19 c3 -5 1 -10 -4 -10 -6 0 -11 5 -11 10 0 6 2 10
4 10 3 0 8 -4 11 -10z m-3974 -63 l20 -38 -56 -24 c-31 -14 -58 -25 -60 -25
-7 0 -45 78 -45 93 0 8 24 23 53 34 57 22 54 23 88 -40z m676 -100 c46 -48 83
-92 83 -96 0 -13 -69 -71 -84 -71 -14 0 -166 154 -210 212 -31 42 -30 48 26
88 l40 29 31 -37 c17 -20 69 -77 114 -125z m4111 148 c2 -2 -2 -13 -8 -25 -8
-14 -17 -19 -30 -15 -25 8 -37 -15 -17 -30 30 -22 10 -36 -22 -16 -12 8 -12
16 3 56 17 43 20 46 45 40 14 -4 27 -8 29 -10z m246 -10 c45 -19 46 -25 2 -21
-39 4 -59 14 -51 27 8 12 6 12 49 -6z m-5414 -11 c0 -8 -4 -12 -10 -9 -5 3
-10 10 -10 16 0 5 5 9 10 9 6 0 10 -7 10 -16z m3791 -1 c13 -17 13 -17 -6 -3
-11 8 -22 16 -24 17 -2 2 0 3 6 3 6 0 17 -8 24 -17z m213 -14 c25 -29 37 -77
16 -64 -5 3 -10 -1 -10 -9 0 -9 -16 -26 -35 -38 -19 -13 -35 -27 -35 -31 0 -5
4 -6 8 -3 4 2 8 -3 8 -13 0 -12 -6 -17 -18 -13 -10 2 -18 9 -18 14 0 5 -4 6
-10 3 -5 -3 -10 1 -10 10 0 8 -10 19 -22 24 -32 12 -62 47 -48 56 5 3 8 11 4
16 -3 5 -2 8 3 7 5 -2 24 14 42 35 44 49 87 51 125 6z m606 27 c0 -2 -8 -10
-17 -17 -16 -13 -17 -12 -4 4 13 16 21 21 21 13z m-4650 -42 c0 -17 6 -24 19
-24 11 0 21 6 24 13 2 6 8 9 12 5 13 -12 -4 -25 -61 -48 -55 -23 -57 -23 -70
-5 -26 35 -17 62 24 78 43 17 52 14 52 -19z m-220 21 c0 -2 -13 -11 -30 -20
-38 -19 -40 -11 -2 9 31 17 32 18 32 11z m3434 -11 c3 -9 2 -12 -5 -9 -5 4
-18 1 -27 -6 -13 -11 -12 -8 2 9 23 26 22 26 30 6z m2064 8 c19 -13 3 -44 -18
-37 -25 8 -37 -15 -17 -30 23 -17 22 -39 0 -30 -10 4 -26 10 -35 12 -23 7 -23
14 3 57 21 35 41 44 67 28z m-2038 -184 c0 -4 -35 -33 -77 -64 -123 -91 -206
-179 -233 -249 -20 -50 -24 -79 -25 -170 0 -60 7 -156 14 -213 20 -136 9 -145
-53 -43 -53 89 -94 189 -132 324 -23 80 -27 117 -31 278 -3 122 -1 193 6 206
8 15 25 22 71 27 75 9 192 39 251 65 l44 20 82 -87 c45 -48 83 -90 83 -94z
m-2985 115 c8 -19 15 -37 15 -39 0 -4 -68 -34 -76 -34 -6 0 -46 82 -42 86 10
10 74 32 81 27 4 -2 14 -20 22 -40z m-425 18 c0 -12 -20 -25 -27 -18 -7 7 6
27 18 27 5 0 9 -4 9 -9z m1154 -165 l89 -98 -35 -34 -35 -35 -64 73 c-108 122
-179 209 -179 219 0 5 15 18 33 29 l32 20 35 -38 c19 -21 75 -82 124 -136z
m4033 159 l22 -15 -26 -45 c-41 -74 -62 -57 -47 38 7 40 18 45 51 22z m-5247
-25 c0 -5 -7 -10 -16 -10 -8 0 -12 5 -9 10 3 6 10 10 16 10 5 0 9 -4 9 -10z
m5623 -4 c4 -9 14 -12 25 -9 11 2 23 0 26 -6 10 -15 -33 -14 -67 2 -15 6 -27
15 -27 20 0 13 38 7 43 -7z m-5548 -17 c-7 -11 -35 -12 -35 -1 0 4 9 8 20 9
11 1 18 -2 15 -8z m637 -22 l16 -34 -52 -31 c-29 -18 -55 -32 -58 -32 -4 0
-16 16 -29 36 -25 40 -24 41 46 74 54 26 59 25 77 -13z m-382 4 c14 -27 13
-31 -9 -31 -10 0 -21 9 -24 19 -9 35 16 43 33 12z m3570 16 c0 -2 -10 -12 -22
-23 l-23 -19 19 23 c18 21 26 27 26 19z m1435 -37 c-23 -45 -35 -45 -18 0 9
22 20 37 24 34 5 -3 2 -18 -6 -34z m-5325 20 c0 -5 -5 -10 -11 -10 -5 0 -7 5
-4 10 3 6 8 10 11 10 2 0 4 -4 4 -10z m1042 -93 c48 -56 103 -118 123 -137 19
-18 35 -39 35 -45 0 -11 -120 -135 -129 -134 -7 0 -78 86 -181 217 l-74 94 60
54 c32 29 64 54 69 54 6 0 49 -46 97 -103z m4390 71 l27 -10 -25 -49 c-15 -27
-30 -49 -35 -49 -5 0 -26 7 -45 15 l-35 15 28 50 c20 35 32 48 43 44 8 -3 27
-10 42 -16z m-5166 -32 l20 -44 -27 -16 c-15 -9 -30 -16 -33 -16 -3 0 -16 22
-30 49 l-24 49 21 10 c38 18 51 12 73 -32z m5374 24 c0 -5 -2 -10 -4 -10 -3 0
-8 5 -11 10 -3 6 -1 10 4 10 6 0 11 -4 11 -10z m-3890 -37 c0 -3 -8 -15 -18
-28 l-19 -23 -29 25 -29 25 23 19 c22 17 25 17 48 3 13 -9 24 -18 24 -21z
m1883 4 c-63 -73 -104 -84 -144 -40 l-24 26 31 -18 c41 -23 74 -15 110 28 16
19 33 32 37 30 5 -3 0 -14 -10 -26z m-3296 -9 c-15 -9 -19 -4 -11 16 5 14 9
15 15 5 5 -8 3 -17 -4 -21z m197 -14 c9 -20 16 -38 14 -39 -2 -1 -18 -10 -35
-19 l-32 -16 -21 40 -20 39 27 15 c41 22 47 20 67 -20z m305 -80 c45 -59 81
-114 81 -124 0 -14 -39 -52 -106 -102 -7 -5 -21 6 -37 29 l-27 37 28 22 c32
26 23 42 -13 26 -14 -7 -30 -12 -36 -12 -5 0 -32 35 -59 77 l-50 77 58 38 c31
20 62 37 69 37 6 1 48 -47 92 -105z m3141 86 c0 -23 -35 -46 -45 -29 -7 11 22
49 37 49 4 0 8 -9 8 -20z m-3924 -15 c-11 -8 -25 -15 -30 -15 -6 1 0 7 14 15
32 19 40 18 16 0z m3724 12 c0 -2 -11 -14 -24 -26 -18 -17 -26 -19 -31 -10 -5
7 -4 10 2 6 6 -4 18 2 28 13 17 19 25 24 25 17z m515 -57 l49 -55 -52 50 c-29
27 -52 54 -52 59 0 5 1 7 3 5 2 -2 25 -29 52 -59z m888 54 c4 -5 -30 -74 -38
-74 -1 0 3 18 8 40 11 39 17 46 30 34z m358 -39 c-17 -36 -26 -41 -51 -25 -13
8 -13 10 2 10 9 0 25 11 35 25 26 35 33 31 14 -10z m-5421 15 c0 -5 -5 -10
-11 -10 -5 0 -7 5 -4 10 3 6 8 10 11 10 2 0 4 -4 4 -10z m1724 -24 l39 -33
-27 -49 c-39 -73 -159 -247 -173 -251 -13 -5 -79 51 -94 79 -13 23 13 58 42
58 13 0 18 6 16 23 -1 16 3 21 15 19 23 -4 49 36 42 65 -4 15 -1 25 9 28 8 4
29 26 46 51 18 24 35 44 39 44 4 -1 24 -16 46 -34z m2059 -47 c10 -15 27 -31
38 -34 10 -4 19 -10 19 -15 0 -5 3 -15 6 -23 3 -8 -2 -17 -10 -20 -10 -4 -13
-1 -9 9 8 20 -11 17 -31 -5 -19 -21 -22 -17 63 -113 53 -60 22 -44 -35 18 -43
47 -56 55 -76 49 -16 -4 -19 -4 -9 3 19 14 7 40 -21 44 -16 2 -26 13 -33 35
-6 18 -22 45 -35 60 -14 15 -3 8 23 -17 26 -24 47 -40 47 -34 0 5 -5 15 -10
20 -8 8 -6 15 5 24 13 11 20 9 41 -11 22 -21 23 -25 10 -35 -17 -12 -21 -40
-8 -48 10 -6 52 21 52 33 0 4 -26 38 -57 77 -45 54 -50 63 -23 40 19 -16 43
-41 53 -57z m-3523 62 c0 -5 -7 -11 -15 -15 -15 -5 -20 5 -8 17 9 10 23 9 23
-2z m1264 -16 c9 -13 16 -29 16 -35 0 -15 -33 -12 -58 6 -22 15 -22 17 -6 35
22 25 28 24 48 -6z m-1494 -9 c0 -3 -4 -8 -10 -11 -5 -3 -10 -1 -10 4 0 6 5
11 10 11 6 0 10 -2 10 -4z m178 -22 c2 -10 14 -28 28 -40 l24 -20 -39 -22 -39
-22 -27 46 c-15 25 -25 47 -23 48 52 39 71 42 76 10z m3709 5 c-9 -6 -17 -17
-17 -24 0 -8 -9 -15 -20 -15 -13 0 -18 5 -14 15 4 8 12 15 19 15 7 0 18 7 25
15 7 9 16 13 19 9 3 -3 -2 -10 -12 -15z m1296 0 c23 -12 44 -23 45 -24 2 -2
-8 -24 -23 -49 l-27 -46 -49 26 c-54 27 -54 26 -11 92 17 27 13 27 65 1z m247
2 c0 -22 -15 -35 -30 -26 -7 4 -7 13 0 26 14 25 30 25 30 0z m-5484 -17 c-30
-21 -44 -16 -17 7 13 11 27 17 30 13 3 -3 -3 -12 -13 -20z m3614 22 c0 -2 -8
-10 -17 -17 -16 -13 -17 -12 -4 4 13 16 21 21 21 13z m1506 -28 c-18 -26 -22
-17 -5 14 6 11 13 17 16 15 3 -3 -2 -16 -11 -29z m-4606 -48 c0 -5 -12 -17
-26 -26 -25 -17 -26 -17 -49 12 -14 16 -24 32 -25 36 0 3 15 15 33 25 l32 19
18 -28 c9 -16 17 -33 17 -38z m-187 46 c6 -16 -19 -30 -28 -16 -7 11 2 30 15
30 4 0 10 -6 13 -14z m1135 -99 c-18 -23 -72 -91 -121 -150 -79 -95 -91 -106
-106 -94 -9 7 -32 27 -52 43 l-36 31 146 136 146 136 28 -30 28 -30 -33 -42z
m-1388 86 c-1 -15 -51 -44 -68 -40 -13 3 -11 6 10 15 14 6 29 16 33 21 7 13
25 15 25 4z m4220 -44 c15 -28 5 -23 -15 7 -9 15 -12 23 -6 20 6 -4 16 -16 21
-27z m1155 11 c3 -5 -1 -10 -9 -10 -9 0 -16 5 -16 10 0 6 4 10 9 10 6 0 13 -4
16 -10z m-5065 -25 c0 -7 -7 -16 -15 -19 -20 -7 -33 23 -14 34 16 10 29 4 29
-15z m3310 -13 c0 -8 -92 -72 -103 -72 -14 0 -7 24 15 47 12 13 30 23 41 23
19 0 20 1 2 20 -18 20 -18 20 13 4 18 -8 32 -19 32 -22z m409 -107 c62 -69
118 -125 123 -125 5 0 18 10 28 23 19 22 18 22 -28 72 l-47 50 55 -52 54 -52
-24 -27 c-14 -14 -38 -35 -55 -47 l-30 -21 18 21 c18 21 18 22 -54 100 -40 43
-96 102 -123 131 -28 28 -46 52 -41 52 6 0 61 -56 124 -125z m1049 95 c68 -35
67 -33 38 -79 -15 -22 -29 -41 -32 -41 -4 0 -28 16 -55 36 -53 38 -52 36 -10
87 17 21 14 21 59 -3z m-5035 -7 c-7 -3 -9 -12 -6 -21 5 -15 4 -15 -13 1 -16
15 -17 19 -4 27 8 5 19 6 24 3 6 -4 6 -8 -1 -10z m212 -9 c21 -26 22 -27 49
-9 14 10 29 15 32 12 10 -10 -129 -97 -140 -87 -6 4 -19 22 -29 39 l-18 31 33
20 c43 26 48 25 73 -6z m255 -33 c0 -4 -15 -15 -34 -24 -35 -16 -40 -14 -59
20 -4 6 7 20 26 32 l32 21 18 -21 c9 -12 17 -24 17 -28z m3340 14 c19 -19 32
-35 29 -35 -3 0 -20 16 -39 35 -19 19 -32 35 -29 35 3 0 20 -16 39 -35z m481
-25 c15 0 69 -49 69 -63 0 -21 -33 1 -90 60 -36 37 -49 53 -30 35 20 -17 43
-32 51 -32z m-671 13 c21 -27 22 -48 2 -48 -6 0 -17 -6 -23 -12 -7 -7 -19 -13
-26 -13 -17 0 -17 -17 0 -23 7 -3 6 -6 -5 -6 -9 -1 -20 4 -23 9 -3 6 -11 10
-16 10 -6 0 -7 -4 -4 -10 12 -19 -12 -10 -34 13 -19 22 -20 25 -6 37 13 11 18
10 28 -4 30 -41 106 2 79 44 -25 40 -3 43 28 3z m-3659 0 c12 -16 12 -17 -1
-7 -8 6 -22 14 -30 17 -13 5 -12 6 1 6 9 1 23 -7 30 -16z m1739 -35 c36 -24
117 -70 180 -102 63 -32 117 -60 119 -62 5 -4 -59 -175 -71 -191 -11 -14 -15
-13 -153 52 -106 49 -241 131 -264 159 -9 10 2 34 49 105 33 51 64 90 68 87 4
-2 36 -24 72 -48z m-860 -69 c0 -8 -120 -122 -124 -118 -2 2 -24 28 -50 57
-25 29 -46 57 -46 61 0 5 28 33 62 61 l63 52 47 -53 c26 -30 48 -57 48 -60z
m4037 57 c-7 -13 -15 -22 -20 -19 -5 3 -1 14 9 24 22 25 24 24 11 -5z m-4537
-33 c0 -22 -16 -15 -28 12 -17 36 -15 41 8 20 11 -10 20 -24 20 -32z m210 -14
c0 -5 -16 -20 -36 -36 l-36 -27 -24 29 c-32 40 -30 52 8 75 l32 19 28 -26 c15
-15 28 -30 28 -34z m4380 51 c0 -17 -32 -60 -40 -55 -10 6 18 65 31 65 5 0 9
-5 9 -10z m-4900 -20 c0 -5 -2 -10 -4 -10 -3 0 -8 5 -11 10 -3 6 -1 10 4 10 6
0 11 -4 11 -10z m254 -12 c9 -12 16 -28 16 -34 0 -11 -58 -54 -73 -54 -3 0
-14 15 -26 32 l-20 33 37 22 c46 28 47 28 66 1z m4940 16 c9 -3 16 -10 16 -15
0 -14 -26 -10 -40 6 -13 16 -3 20 24 9z m-230 -25 c29 -23 32 -36 11 -63 -13
-18 -15 -18 -50 4 l-35 22 17 29 c21 35 23 35 57 8z m209 -24 c12 -9 15 -15 7
-20 -12 -8 -80 40 -80 57 0 9 18 0 73 -37z m-3796 -18 l56 -54 -74 -108 c-41
-60 -79 -110 -84 -112 -12 -3 -145 103 -145 115 0 13 170 212 181 212 6 0 36
-24 66 -53z m2497 -74 c79 -82 86 -87 106 -75 18 11 21 11 14 0 -5 -7 -9 -22
-9 -33 0 -15 -7 -20 -25 -20 -18 0 -26 -6 -28 -22 -4 -30 -26 -29 -40 2 -6 13
-45 60 -87 103 -41 44 -75 83 -75 87 0 5 40 -34 89 -86 l89 -94 21 19 22 20
-48 50 c-101 106 -127 136 -120 136 3 0 44 -39 91 -87z m-3501 44 c17 -22 18
-29 7 -42 -12 -15 -16 -12 -36 21 -35 58 -11 75 29 21z m4405 8 c-6 -14 -15
-25 -20 -25 -9 0 -4 14 15 38 15 19 18 14 5 -13z m32 -28 c-26 -25 -30 -27
-16 -7 9 14 19 33 23 43 4 13 9 15 16 8 8 -8 2 -20 -23 -44z m-4187 -109 l-37
-38 -49 47 c-74 73 -75 77 -25 114 l43 31 52 -58 53 -59 -37 -37z m4518 131
c11 -11 18 -23 15 -26 -5 -5 -76 35 -76 43 0 13 43 1 61 -17z m-2563 -649 c0
-338 -3 -624 -8 -635 -5 -11 -8 263 -8 640 0 363 4 649 8 635 4 -14 8 -302 8
-640z m-2558 640 c-8 -5 -19 -10 -25 -10 -5 0 -3 5 5 10 8 5 20 10 25 10 6 0
3 -5 -5 -10z m300 -26 l22 -35 -23 -25 c-30 -32 -42 -30 -73 10 l-26 35 33 25
c17 14 35 26 39 26 3 0 16 -16 28 -36z m4591 9 c16 -10 29 -20 29 -23 -1 -3
-16 -23 -35 -45 -29 -33 -35 -37 -41 -22 -3 9 -1 23 5 31 17 20 0 28 -26 11
-28 -19 -29 -12 -2 31 24 39 30 40 70 17z m205 -50 c-6 -6 -76 40 -76 50 0 4
18 -5 40 -19 22 -15 38 -29 36 -31z m-5066 37 c-8 -5 -19 -10 -25 -10 -5 0 -3
5 5 10 8 5 20 10 25 10 6 0 3 -5 -5 -10z m4166 -4 c18 -14 18 -15 1 -21 -9 -4
-26 -5 -36 -2 -15 4 -18 -1 -17 -27 1 -30 -1 -31 -37 -31 -20 1 -38 5 -38 9
-1 8 90 84 102 85 3 1 14 -5 25 -13z m-3233 -10 c16 -12 13 -18 -41 -64 -55
-48 -60 -50 -75 -34 -16 15 -14 19 30 64 51 52 58 55 86 34z m-838 -16 c26
-28 15 -31 -12 -3 -12 13 -19 23 -14 23 4 0 16 -9 26 -20z m1404 -38 c29 -19
118 -66 196 -104 l143 -69 -39 -117 c-21 -64 -43 -120 -47 -124 -20 -20 -314
115 -445 204 -53 36 -56 41 -46 61 16 30 108 168 127 189 16 20 20 18 111 -40z
m-1463 23 c-11 -8 -27 -15 -35 -15 -13 1 -12 4 3 15 11 8 27 15 35 15 13 -1
12 -4 -3 -15z m346 -34 c-9 -9 -18 -13 -20 -9 -2 4 -11 8 -20 8 -14 1 -12 5 7
20 17 15 27 17 37 9 10 -8 9 -14 -4 -28z m613 23 c14 -9 25 -21 25 -27 0 -5
-21 -34 -46 -64 -37 -43 -49 -51 -60 -42 -8 7 -17 9 -21 5 -4 -3 1 -12 10 -19
16 -11 15 -14 -7 -42 l-24 -30 -31 29 -30 29 74 81 c41 44 75 84 75 88 0 12 8
10 35 -8z m3679 7 c3 -5 -6 -16 -20 -26 -25 -16 -25 -18 -9 -33 15 -16 18 -15
40 13 13 16 27 26 31 22 9 -9 -45 -67 -63 -67 -7 0 -13 6 -13 14 0 8 -7 17
-16 20 -13 5 -13 10 6 36 22 31 35 37 44 21z m-4603 -31 c-24 -21 -51 -26 -51
-12 0 11 39 31 60 31 10 0 8 -6 -9 -19z m253 -26 c4 -11 -1 -18 -14 -21 -11
-3 -20 -13 -20 -22 -1 -14 -2 -13 -11 2 -8 14 -7 23 7 38 21 23 30 24 38 3z
m96 -9 c-7 -8 -17 -15 -22 -15 -6 0 -5 7 2 15 7 8 17 15 22 15 6 0 5 -7 -2
-15z m4359 1 c11 -13 6 -46 -8 -46 -4 0 -17 7 -29 16 -18 13 -21 19 -11 30 15
18 33 18 48 0z m-778 -42 c-4 -39 -8 -44 -38 -44 -18 0 -24 -4 -20 -14 10 -26
-16 -36 -43 -16 l-24 18 32 27 c18 15 43 36 55 46 29 24 43 19 38 -17z m-3211
-10 c0 -19 -16 -10 -31 17 -10 19 -9 20 10 9 12 -6 21 -18 21 -26z m328 -1
c24 -21 53 -45 65 -54 20 -16 20 -16 -9 -68 -16 -28 -32 -51 -35 -51 -3 0 -21
12 -40 26 l-34 25 -20 -27 c-56 -75 -47 -72 -94 -35 l-42 34 31 32 c21 22 38
31 51 28 27 -8 71 6 66 20 -2 7 -16 14 -31 17 l-28 5 31 43 c17 23 34 42 38
42 3 0 26 -17 51 -37z m3472 34 c0 -2 -12 -14 -27 -28 l-26 -24 19 27 c16 23
34 36 34 25z m-4225 -26 c-3 -6 -12 -11 -20 -11 -8 0 -19 -8 -24 -17 -6 -10
-11 -13 -11 -6 0 6 12 21 27 32 26 21 41 22 28 2z m100 -1 c0 -22 -29 -18 -33
3 -3 14 1 18 15 15 10 -2 18 -10 18 -18z m4275 -33 c-9 -10 -50 9 -50 22 0 18
14 19 35 3 13 -9 20 -21 15 -25z m-110 19 c0 -12 -40 -46 -55 -46 -4 0 3 14
15 30 23 32 40 39 40 16z m295 -44 c-15 -4 -87 33 -79 40 3 3 24 -4 48 -16 24
-11 38 -22 31 -24z m-4789 23 c-8 -8 -21 -15 -28 -15 -8 1 -6 6 6 15 26 20 42
19 22 0z m275 -29 c-8 -9 -17 -14 -21 -11 -5 3 -12 1 -15 -5 -5 -8 -11 -8 -20
0 -12 10 -9 16 13 35 23 20 29 22 41 10 12 -11 12 -17 2 -29z m320 25 l24 -20
-45 -45 -44 -46 -24 24 c-14 14 -21 29 -17 36 5 8 10 9 18 1 16 -16 42 -14 57
4 10 13 10 19 -4 33 -9 10 -16 22 -16 25 0 14 28 7 51 -12z m3969 -33 c0 -5
-9 -17 -21 -29 -16 -16 -23 -18 -35 -8 -18 15 -18 28 2 50 13 15 20 16 35 6
10 -6 19 -15 19 -19z m-4503 -3 c-29 -26 -47 -32 -47 -16 0 13 41 41 60 41 10
-1 6 -9 -13 -25z m4671 3 c20 -12 30 -24 23 -26 -6 -2 -23 4 -37 13 -19 12
-29 14 -37 6 -18 -18 -28 -12 -15 9 16 25 23 25 66 -2z m-4603 -8 c3 -5 1 -10
-4 -10 -6 0 -11 5 -11 10 0 6 2 10 4 10 3 0 8 -4 11 -10z m548 -38 l27 -28
-36 -42 c-19 -23 -39 -42 -44 -42 -5 0 -23 12 -40 26 l-31 27 42 43 c24 24 46
44 49 44 4 0 18 -13 33 -28z m-593 -2 c-28 -22 -40 -25 -40 -10 0 11 30 29 50
29 10 1 6 -6 -10 -19z m1081 -25 c35 -25 64 -49 64 -53 -2 -20 -27 -92 -32
-92 -12 0 -139 78 -151 92 -8 10 -4 24 16 56 15 23 29 42 33 42 3 0 34 -20 70
-45z m701 18 c113 -27 118 -29 118 -54 0 -26 -46 -218 -54 -226 -2 -2 -65 10
-140 28 -97 24 -136 37 -136 47 0 18 37 144 57 195 8 20 20 37 27 37 6 0 64
-12 128 -27z m2852 12 c23 -17 13 -34 -11 -19 -19 12 -29 34 -16 34 4 0 17 -7
27 -15z m-4589 -35 c-16 -17 -33 -30 -39 -30 -5 0 5 16 24 35 18 19 36 32 39
30 2 -3 -8 -19 -24 -35z m4155 30 c0 -5 -5 -10 -11 -10 -5 0 -7 5 -4 10 3 6 8
10 11 10 2 0 4 -4 4 -10z m91 -22 c9 -16 8 -19 -3 -13 -28 16 -38 28 -32 36 7
12 21 3 35 -23z m248 1 c-16 -10 -23 -4 -14 10 3 6 11 8 17 5 6 -4 5 -9 -3
-15z m-4154 -23 l30 -25 -42 -43 c-33 -33 -45 -40 -55 -30 -9 9 -7 17 10 35
24 26 28 43 10 49 -12 4 -4 38 9 38 4 0 22 -11 38 -24z m2086 -76 c20 -31 61
-86 92 -122 l56 -66 -31 -6 c-17 -3 -61 -6 -98 -6 -53 0 -69 4 -74 16 -3 9 -6
75 -5 147 0 106 3 128 12 113 7 -10 28 -44 48 -76z m1819 45 c32 -33 41 -48
33 -56 -13 -13 -33 -4 -33 17 0 8 -3 14 -7 14 -16 1 -40 26 -47 48 -11 33 5
27 54 -23z m284 24 c-3 -6 0 -15 7 -20 8 -5 10 -9 4 -9 -19 0 -38 18 -31 29 4
6 12 11 17 11 6 0 7 -5 3 -11z m-3694 -17 c24 -19 22 -30 -14 -76 -14 -18 -16
-18 -45 3 l-31 22 23 34 c25 40 36 42 67 17z m3461 -8 l24 -27 -27 18 c-16 9
-28 21 -28 26 0 14 5 11 31 -17z m-4021 8 c0 -18 -28 -45 -39 -38 -9 6 -8 13
5 27 18 20 34 25 34 11z m471 -108 l21 -23 -27 -35 c-15 -20 -33 -36 -39 -36
-6 0 -34 20 -63 45 -28 25 -56 45 -61 45 -5 0 -15 7 -22 15 -10 11 -6 22 21
53 l33 40 58 -41 c32 -23 68 -51 79 -63z m-731 76 c-8 -5 -17 -7 -19 -4 -3 3
1 9 9 14 8 5 17 7 19 4 3 -3 -1 -9 -9 -14z m4045 10 c-3 -5 -12 -10 -18 -10
-7 0 -6 4 3 10 19 12 23 12 15 0z m-3595 -70 c0 -4 -17 -26 -37 -49 l-38 -41
-34 30 -34 29 37 46 37 45 35 -26 c19 -15 34 -30 34 -34z m3744 25 c30 -39 22
-46 -17 -15 -15 12 -24 27 -20 35 7 20 7 20 37 -20z m-3216 -43 c28 -19 52
-38 52 -41 0 -3 -9 -21 -20 -39 l-20 -33 -48 28 c-103 59 -123 74 -116 86 4 7
16 25 27 40 22 32 8 36 125 -41z m-778 48 c0 -5 -4 -10 -10 -10 -5 0 -10 5
-10 10 0 6 5 10 10 10 6 0 10 -4 10 -10z m1030 -21 c0 -18 -40 -89 -51 -89 -9
0 -47 17 -57 26 -2 1 8 23 23 48 25 43 27 44 56 34 16 -5 29 -14 29 -19z
m2753 1 c-53 -46 -156 -121 -160 -116 -4 3 -4 7 -2 9 2 2 27 22 55 45 29 23
56 42 60 42 5 0 15 9 22 20 7 12 17 18 23 14 6 -3 7 -10 2 -14z m394 -12 c37
-35 43 -54 14 -38 -21 11 -67 70 -55 70 5 0 23 -14 41 -32z m-4224 -40 c-30
-32 -41 -35 -50 -12 -3 8 4 25 17 39 18 20 25 22 41 12 18 -11 17 -13 -8 -39z
m3993 23 c14 -20 14 -25 2 -37 -12 -12 -19 -9 -50 23 l-37 38 34 0 c25 0 39
-7 51 -24z m183 5 c6 -7 9 -21 5 -30 -4 -11 -2 -15 8 -11 19 8 44 -20 28 -30
-13 -8 -80 52 -80 72 0 17 24 17 39 -1z m-2967 -27 c45 -18 85 -33 87 -35 3
-3 -24 -75 -35 -92 -2 -3 -135 48 -143 55 -2 1 4 12 14 23 14 15 16 23 7 32
-17 17 -42 1 -42 -26 0 -19 -4 -24 -15 -19 -14 5 -14 8 0 27 8 11 20 31 25 44
5 12 11 22 14 22 2 0 42 -14 88 -31z m2675 4 c48 -61 48 -60 7 -98 -20 -20
-59 -51 -85 -70 l-47 -34 -26 39 c-30 46 -31 53 -10 71 14 11 20 8 44 -21 36
-44 52 -31 23 20 l-22 38 46 36 c25 20 48 36 51 36 3 0 11 -8 19 -17z m-3830
-20 c-9 -9 -19 -14 -22 -11 -3 3 2 13 11 22 9 9 19 14 22 11 3 -3 -2 -13 -11
-22z m320 5 c30 -28 29 -32 -9 -77 l-32 -39 -32 26 -33 26 37 42 c20 23 39 43
41 43 3 1 15 -9 28 -21z m309 -39 c19 -11 32 -24 30 -27 -2 -4 -11 -24 -21
-44 -9 -21 -21 -38 -26 -38 -5 0 -27 12 -49 26 l-40 26 28 39 c15 21 31 39 36
39 5 0 24 -9 42 -21z m-561 -17 c-8 -2 -15 -10 -15 -18 0 -19 -26 -18 -34 1
-3 10 1 15 13 15 10 0 22 8 25 17 6 15 8 15 16 3 7 -11 5 -16 -5 -18z m4029 3
c15 -14 21 -25 14 -25 -7 0 -21 12 -31 25 -23 32 -17 32 17 0z m-4134 5 c0 -5
-2 -10 -4 -10 -3 0 -8 5 -11 10 -3 6 -1 10 4 10 6 0 11 -4 11 -10z m959 -1
c17 -6 31 -13 31 -15 0 -3 -9 -22 -20 -44 -19 -37 -21 -39 -50 -29 -17 6 -32
15 -35 19 -4 7 32 80 39 80 2 0 17 -5 35 -11z m3098 -9 c3 -10 16 -23 29 -27
17 -6 21 -12 14 -23 -8 -12 -14 -10 -40 15 -30 29 -39 55 -19 55 6 0 13 -9 16
-20z m-3603 -19 l28 -29 -26 -41 c-15 -23 -29 -41 -32 -41 -4 0 -1 7 6 15 18
22 4 31 -18 12 -16 -15 -20 -14 -47 7 l-29 24 34 40 c19 22 40 41 46 41 5 1
23 -12 38 -28z m942 18 c48 -12 52 -22 33 -78 -8 -22 -16 -30 -28 -27 -9 3
-35 10 -58 17 -24 7 -43 15 -43 18 0 3 5 23 11 44 11 41 17 43 85 26z m-633
-41 c18 -12 33 -23 35 -24 4 -3 -37 -84 -43 -84 -13 0 -75 35 -75 42 0 13 39
88 46 88 3 0 20 -10 37 -22z m277 -38 c-12 -37 -32 -51 -44 -32 -2 4 4 28 15
52 15 32 22 41 31 32 9 -9 8 -21 -2 -52z m533 39 c40 -10 43 -19 26 -68 -12
-35 -22 -37 -99 -20 -55 12 -59 20 -39 78 12 35 13 35 112 10z m2012 -2 c-40
-27 -80 -51 -73 -43 13 15 73 55 83 56 5 0 1 -6 -10 -13z m-3470 -17 c-10 -11
-22 -20 -28 -20 -5 0 1 9 14 20 31 25 37 25 14 0z m1019 -16 c-3 -34 -18 -74
-28 -74 -7 0 -20 6 -30 13 -17 12 -17 16 -3 50 14 32 19 36 39 28 13 -4 23
-12 22 -17z m741 -3 l70 -6 3 -44 3 -44 -139 6 c-76 4 -146 9 -156 13 -17 6
-20 32 -9 72 6 23 8 24 82 17 42 -4 108 -10 146 -14z m2179 4 c3 -8 1 -15 -4
-15 -6 0 -10 7 -10 15 0 8 2 15 4 15 2 0 6 -7 10 -15z m-3804 -5 c0 -5 -4 -10
-9 -10 -5 0 -18 -3 -28 -6 -16 -6 -16 -5 2 9 23 19 35 21 35 7z m2205 -10 c10
-11 26 -22 36 -25 24 -8 25 -32 2 -39 -10 -2 -58 -7 -108 -11 -49 -3 -114 -8
-142 -11 l-53 -5 0 50 0 50 63 4 c165 9 183 8 202 -13z m1211 -7 c35 -48 37
-59 5 -25 -17 17 -33 32 -36 32 -13 0 -3 -39 15 -60 23 -26 23 -27 -42 -63
l-46 -27 -27 46 c-15 25 -24 49 -20 52 12 13 110 70 121 71 5 1 19 -11 30 -26z
m-3076 -8 l40 -25 -25 -51 -26 -50 -49 28 c-28 15 -50 33 -50 38 0 16 49 85
61 85 5 0 27 -11 49 -25z m609 14 c36 -13 35 -10 16 -55 -13 -31 -17 -34 -42
-28 -36 9 -36 9 -24 32 6 12 11 30 11 41 0 25 -2 24 39 10z m2771 -20 c0 -6
-4 -7 -10 -4 -5 3 -10 11 -10 16 0 6 5 7 10 4 6 -3 10 -11 10 -16z m-3072 -9
c37 -23 35 -18 21 -59 -6 -17 -18 -31 -27 -31 -25 0 -82 23 -82 33 0 13 40 77
48 77 4 0 22 -9 40 -20z m496 -30 c4 -5 3 -24 -3 -43 l-12 -34 -51 8 c-28 5
-53 11 -56 14 -3 2 0 22 6 44 l12 39 48 -10 c26 -6 51 -14 56 -18z m-1098 -7
c-10 -10 -19 5 -10 18 6 11 8 11 12 0 2 -7 1 -15 -2 -18z m-91 -3 c3 -6 -1 -7
-9 -4 -18 7 -21 14 -7 14 6 0 13 -4 16 -10z m1308 -10 l58 -12 -6 -31 c-4 -18
-11 -36 -15 -41 -9 -9 -140 11 -140 21 0 24 25 81 34 78 6 -2 37 -9 69 -15z
m2357 16 c0 -3 -4 -8 -10 -11 -5 -3 -10 -1 -10 4 0 6 5 11 10 11 6 0 10 -2 10
-4z m-3170 -21 c17 -9 30 -18 30 -21 0 -13 -44 -84 -52 -84 -12 0 -68 29 -68
36 0 12 46 84 53 84 4 0 21 -7 37 -15z m318 -1 c27 -18 27 -31 4 -66 -17 -26
-18 -26 -49 -10 l-31 17 15 38 c17 41 28 45 61 21z m2494 -33 l27 -48 -26 -12
c-14 -6 -27 -10 -29 -9 -1 2 -12 25 -23 50 -19 44 -19 48 -3 57 25 15 25 15
54 -38z m305 12 c-3 -3 -11 -2 -17 2 -8 5 -7 11 2 22 12 15 13 14 16 -1 2 -10
1 -20 -1 -23z m-3471 0 c-10 -10 -19 5 -10 18 6 11 8 11 12 0 2 -7 1 -15 -2
-18z m-71 -5 c4 -3 2 -9 -3 -12 -5 -3 -15 1 -21 8 -10 11 -9 14 3 12 9 -1 18
-5 21 -8z m1610 -7 l70 -6 3 -37 c4 -50 -12 -56 -133 -47 -55 4 -118 8 -140 8
-57 2 -65 9 -58 59 l6 43 91 -7 c50 -4 123 -10 161 -13z m644 -43 c1 -15 -2
-29 -6 -31 -5 -3 -53 -8 -108 -11 -55 -4 -128 -9 -162 -12 l-63 -6 0 46 c0 25
1 46 3 47 1 0 74 6 162 12 175 13 173 14 174 -45z m140 44 c49 -24 49 -39 1
-52 -23 -6 -43 -10 -45 -8 -1 2 -5 20 -8 41 -7 42 0 45 52 19z m1239 7 c-2 -6
-8 -10 -13 -10 -5 0 -11 4 -13 10 -2 6 4 11 13 11 9 0 15 -5 13 -11z m-2731
-36 c6 -14 -15 -73 -26 -73 -18 0 -81 22 -86 30 -3 5 1 25 9 44 14 34 14 34
56 24 23 -6 44 -17 47 -25z m2243 -13 c11 -21 20 -42 20 -44 0 -3 -22 -17 -48
-30 l-49 -25 -13 37 c-7 20 -15 43 -17 50 -4 9 62 50 84 52 2 0 12 -18 23 -40z
m350 19 c0 -6 -4 -7 -10 -4 -5 3 -10 11 -10 16 0 6 5 7 10 4 6 -3 10 -11 10
-16z m-2947 -5 c18 -9 33 -18 35 -19 2 -2 -3 -16 -12 -32 -31 -56 -30 -56 -70
-39 -20 8 -36 18 -36 21 0 10 40 85 46 85 3 0 19 -7 37 -16z m2393 1 c-20 -15
-36 -19 -36 -10 0 5 38 23 50 24 3 0 -4 -6 -14 -14z m642 3 c-6 -18 -28 -21
-28 -4 0 9 7 16 16 16 9 0 14 -5 12 -12z m-3427 -31 c-10 -9 -11 -8 -5 6 3 10
9 15 12 12 3 -3 0 -11 -7 -18z m895 2 c52 -13 57 -19 46 -50 -7 -19 -10 -20
-15 -6 -10 26 -40 9 -34 -19 4 -21 1 -23 -22 -17 -62 15 -73 22 -66 46 4 12 9
30 11 40 6 20 19 21 80 6z m1814 2 c0 -5 -28 -19 -62 -30 -59 -20 -64 -20 -75
-4 -24 32 -22 33 110 41 15 1 27 -2 27 -7z m579 -4 c8 -10 7 -14 -4 -14 -8 0
-15 6 -15 14 0 7 2 13 4 13 2 0 9 -6 15 -13z m-793 -32 c8 -42 7 -43 -30 -47
-25 -3 -30 2 -42 34 -14 41 -10 46 38 47 23 1 28 -4 34 -34z m869 26 c3 -5 1
-12 -4 -15 -5 -3 -11 1 -15 9 -6 16 9 21 19 6z m-521 -78 c6 -18 1 -25 -23
-37 l-29 -15 -16 39 c-21 53 -21 57 12 74 26 14 27 14 38 -12 6 -15 15 -37 18
-49z m-2315 56 c26 -9 30 -15 25 -33 -9 -28 -33 -76 -39 -76 -10 0 -85 32 -85
36 0 3 9 23 20 44 22 43 30 46 79 29z m528 -4 c24 -4 45 -10 47 -14 5 -7 -9
-79 -16 -86 -2 -2 -36 3 -75 12 -62 14 -70 18 -57 30 8 8 14 25 14 37 0 28 9
38 29 32 9 -3 35 -8 58 -11z m1342 -22 c12 -42 2 -55 -39 -51 -20 3 -26 9 -28
37 -6 61 51 73 67 14z m841 27 c0 -5 -4 -10 -9 -10 -6 0 -13 5 -16 10 -3 6 1
10 9 10 9 0 16 -4 16 -10z m-937 -47 c7 -43 -2 -53 -51 -53 -29 0 -32 2 -26
24 3 13 1 27 -5 30 -27 17 -4 31 55 35 17 1 23 -6 27 -36z m963 13 c0 -15 -5
-21 -10 -16 -5 5 -6 16 -3 24 9 23 15 19 13 -8z m-1876 -13 c73 -3 128 -10
132 -17 4 -6 8 -26 8 -43 l0 -33 -135 0 c-89 0 -135 4 -135 11 0 6 -9 8 -21 4
-11 -4 -31 -4 -45 -1 -26 7 -30 28 -14 72 10 24 14 26 48 20 20 -4 93 -9 162
-13z m1340 -9 c18 -45 12 -64 -23 -79 -71 -29 -86 -29 -97 -1 -26 68 -25 71
27 88 68 23 82 22 93 -8z m-2061 5 c35 -13 38 -28 13 -80 l-17 -36 -47 14
c-53 16 -56 25 -31 78 18 37 31 41 82 24z m1451 -8 c0 -11 -6 -22 -12 -24 -10
-4 -9 -8 2 -16 27 -19 -7 -29 -129 -36 -211 -14 -216 -13 -219 14 -2 12 -1 34
2 47 7 25 17 27 264 32 85 2 92 0 92 -17z m-2005 -31 c3 -5 1 -10 -4 -10 -6 0
-11 5 -11 10 0 6 2 10 4 10 3 0 8 -4 11 -10z m2946 -20 c6 0 7 -5 3 -11 -8
-14 -24 8 -23 31 1 11 3 10 6 -2 2 -10 9 -18 14 -18z m-2198 9 c28 -8 37 -14
33 -27 -2 -9 -7 -34 -11 -55 -5 -29 -10 -37 -23 -33 -9 3 -36 10 -60 16 l-42
11 15 29 c8 16 15 38 15 50 0 23 16 25 73 9z m1671 -37 c10 -47 10 -47 -21
-56 -19 -6 -23 -1 -35 41 -15 52 -9 65 27 61 15 -2 22 -14 29 -46z m-95 -9 c6
-21 11 -43 11 -50 0 -14 -67 -34 -122 -37 -21 -1 -40 -5 -44 -9 -18 -18 -33
-4 -39 38 -4 24 -7 48 -7 52 1 7 135 39 174 42 12 1 20 -11 27 -36z m-1421 12
c2 -2 -4 -26 -13 -54 -17 -52 -25 -57 -73 -44 -22 5 -23 9 -17 52 4 25 9 50
12 55 5 7 82 0 91 -9z m-715 -9 c4 -10 1 -13 -8 -9 -8 3 -12 9 -9 14 7 12 11
11 17 -5z m2797 9 c0 -2 -9 -9 -20 -15 -12 -6 -20 -7 -20 -1 0 5 8 12 18 14 9
3 18 5 20 6 1 0 2 -1 2 -4z m-2025 -41 c-3 -13 -7 -35 -10 -49 -4 -17 -12 -25
-26 -25 -16 0 -19 5 -15 20 3 11 9 30 12 43 14 49 49 60 39 11z m117 -24 c-5
-58 -12 -70 -38 -70 -23 0 -24 3 -19 38 12 66 15 73 38 70 19 -3 22 -9 19 -38z
m942 18 c8 -32 7 -88 -1 -89 -5 0 -21 -3 -37 -5 -36 -6 -46 7 -46 63 0 43 7
51 51 52 20 1 28 -5 33 -21z m-858 4 c7 -4 9 -24 5 -52 -6 -42 -8 -45 -39 -48
l-33 -3 7 48 c3 26 8 51 11 56 5 9 35 9 49 -1z m738 -8 c3 -9 6 -33 6 -55 0
-47 -2 -48 -153 -51 l-107 -3 0 57 0 57 88 4 c48 1 103 4 123 5 26 1 39 -3 43
-14z m-489 -5 c3 -3 2 -27 -1 -52 l-7 -47 -98 0 c-59 0 -100 4 -104 11 -4 6
-4 31 0 56 l7 45 98 -4 c55 -2 101 -6 105 -9z m-958 -31 c-3 -8 -6 -5 -6 6 -1
11 2 17 5 13 3 -3 4 -12 1 -19z m2193 7 c0 -8 -7 -15 -15 -15 -26 0 -18 20 13
29 1 1 2 -6 2 -14z m140 -15 c0 -5 -4 -10 -10 -10 -5 0 -10 5 -10 10 0 6 5 10
10 10 6 0 10 -4 10 -10z m-2380 -20 c0 -11 -4 -20 -10 -20 -5 0 -10 9 -10 20
0 11 5 20 10 20 6 0 10 -9 10 -20z m160 -10 c-5 -10 -10 -28 -10 -39 0 -12 -5
-21 -11 -21 -11 0 -5 63 8 83 10 16 23 -5 13 -23z m2150 9 c0 -6 -4 -7 -10 -4
-5 3 -10 11 -10 16 0 6 5 7 10 4 6 -3 10 -11 10 -16z m-162 -49 c0 -9 -3 -7
-8 5 -5 11 -8 29 -8 40 0 16 2 15 8 -5 4 -14 8 -32 8 -40z m-2108 35 c0 -8 -4
-15 -10 -15 -5 0 -7 7 -4 15 4 8 8 15 10 15 2 0 4 -7 4 -15z m2010 1 c0 -3 -4
-8 -10 -11 -5 -3 -10 -1 -10 4 0 6 5 11 10 11 6 0 10 -2 10 -4z m-1780 -26 c0
-11 -4 -20 -9 -20 -5 0 -7 9 -4 20 3 11 7 20 9 20 2 0 4 -9 4 -20z m1690 -23
c0 -13 6 -29 13 -36 10 -11 9 -13 -3 -9 -16 5 -33 68 -19 68 5 0 9 -10 9 -23z
m-43 -39 c-2 -13 -4 -5 -4 17 -1 22 1 32 4 23 2 -10 2 -28 0 -40z m153 43 c0
-5 -7 -11 -15 -15 -9 -3 -15 0 -15 9 0 8 7 15 15 15 8 0 15 -4 15 -9z m-1850
-21 c0 -5 -5 -10 -11 -10 -5 0 -7 5 -4 10 3 6 8 10 11 10 2 0 4 -4 4 -10z
m210 -3 c0 -7 -7 -22 -15 -33 -13 -17 -14 -16 -4 14 11 33 19 41 19 19z m1390
-24 c0 -28 -3 -34 -10 -23 -13 20 -13 60 0 60 6 0 10 -17 10 -37z m-40 -15 c0
-38 -5 -34 -13 10 -4 21 -3 31 3 27 6 -3 10 -20 10 -37z m-1060 10 c-1 -41
-13 -58 -42 -58 -27 0 -30 3 -24 23 3 12 6 28 6 35 0 7 13 12 30 12 17 0 30
-5 30 -12z m37 -20 c-3 -8 -6 -5 -6 6 -1 11 2 17 5 13 3 -3 4 -12 1 -19z m115
10 c-8 -8 -9 -15 -1 -25 9 -10 8 -13 -4 -13 -10 0 -14 -6 -11 -15 4 -8 1 -15
-5 -15 -6 0 -11 8 -11 18 0 35 13 62 28 62 12 0 13 -3 4 -12z m538 -34 c0 -19
-4 -34 -9 -34 -12 0 -22 45 -15 64 10 25 24 8 24 -30z m37 -6 c-2 -13 -4 -5
-4 17 -1 22 1 32 4 23 2 -10 2 -28 0 -40z m423 42 c0 -5 -4 -10 -10 -10 -5 0
-10 5 -10 10 0 6 5 10 10 10 6 0 10 -4 10 -10z m-1073 -47 c-3 -10 -5 -2 -5
17 0 19 2 27 5 18 2 -10 2 -26 0 -35z m789 31 c-3 -9 -6 -23 -7 -32 0 -14 -2
-13 -9 3 -13 31 -11 45 6 45 11 0 14 -5 10 -16z m29 -24 c3 -5 1 -10 -4 -10
-6 0 -11 5 -11 10 0 6 2 10 4 10 3 0 8 -4 11 -10z"/>
<path d="M3252 6754 c2 -15 9 -29 16 -32 10 -3 13 4 10 24 -2 15 -9 29 -16 32
-10 3 -13 -4 -10 -24z"/>
<path d="M4840 6711 c0 -21 26 -36 36 -20 9 15 -3 39 -21 39 -8 0 -15 -9 -15
-19z"/>
<path d="M4312 6692 c-8 -13 -11 -31 -7 -39 9 -26 27 0 23 33 l-3 29 -13 -23z"/>
<path d="M4807 6593 c-4 -3 -7 -15 -7 -25 0 -26 24 -17 28 10 3 21 -8 29 -21
15z"/>
<path d="M5157 6143 c-4 -3 -7 -11 -7 -17 0 -6 5 -5 12 2 6 6 9 14 7 17 -3 3
-9 2 -12 -2z"/>
<path d="M2646 5830 l-41 -39 32 -32 32 -32 35 26 c40 31 52 58 37 85 -19 37
-50 34 -95 -8z"/>
<path d="M5057 4982 c-22 -24 -21 -45 3 -67 43 -39 107 13 75 61 -19 29 -55
32 -78 6z"/>
<path d="M6270 4965 c0 -8 7 -15 15 -15 8 0 15 7 15 15 0 8 -7 15 -15 15 -8 0
-15 -7 -15 -15z"/>
<path d="M5960 4882 c0 -24 8 -32 26 -25 22 8 17 43 -6 43 -13 0 -20 -7 -20
-18z"/>
<path d="M1990 4879 c0 -24 23 -21 28 4 2 10 -3 17 -12 17 -10 0 -16 -9 -16
-21z"/>
<path d="M5745 4779 c-33 -19 -45 -41 -45 -80 0 -29 7 -43 31 -63 35 -30 55
-32 104 -12 60 25 72 77 28 126 -31 34 -86 48 -118 29z"/>
<path d="M2115 4755 c-35 -34 -33 -78 4 -116 33 -33 67 -37 111 -14 55 28 67
89 25 130 -34 35 -106 35 -140 0z"/>
<path d="M1755 4650 c3 -5 13 -10 21 -10 8 0 12 5 9 10 -3 6 -13 10 -21 10 -8
0 -12 -4 -9 -10z"/>
<path d="M6202 4659 c2 -7 10 -15 17 -17 8 -3 12 1 9 9 -2 7 -10 15 -17 17 -8
3 -12 -1 -9 -9z"/>
<path d="M4564 3859 c-10 -17 23 -46 37 -32 7 7 9 19 6 27 -7 18 -33 21 -43 5z"/>
<path d="M3286 3780 c-21 -26 -24 -35 -15 -58 17 -43 39 -62 76 -62 71 0 109
82 60 128 -36 33 -89 30 -121 -8z"/>
<path d="M5085 3320 c-10 -16 16 -43 28 -31 11 11 2 41 -12 41 -5 0 -13 -5
-16 -10z"/>
<path d="M6397 3658 c-15 -39 -16 -48 -6 -48 13 0 22 24 16 47 -4 17 -4 17
-10 1z"/>
<path d="M1260 3420 c0 -5 5 -10 10 -10 6 0 10 5 10 10 0 6 -4 10 -10 10 -5 0
-10 -4 -10 -10z"/>
<path d="M1592 3330 c2 -19 8 -34 13 -33 17 3 17 27 0 48 -15 19 -15 18 -13
-15z"/>
<path d="M6362 3358 c-7 -7 -12 -20 -12 -30 0 -26 36 -23 43 4 10 35 -7 50
-31 26z"/>
<path d="M5300 3260 c0 -5 5 -10 10 -10 6 0 10 5 10 10 0 6 -4 10 -10 10 -5 0
-10 -4 -10 -10z"/>
<path d="M6410 3020 c0 -33 15 -41 22 -12 6 21 -1 42 -13 42 -5 0 -9 -13 -9
-30z"/>
<path d="M6560 2985 c0 -8 5 -15 10 -15 6 0 10 7 10 15 0 8 -4 15 -10 15 -5 0
-10 -7 -10 -15z"/>
<path d="M5349 2927 c-13 -28 4 -77 26 -77 19 0 65 44 65 63 0 40 -73 52 -91
14z"/>
<path d="M1330 2922 c0 -36 8 -44 32 -31 26 14 20 53 -9 57 -19 3 -23 -1 -23
-26z"/>
<path d="M4552 2814 c2 -11 11 -20 22 -22 13 -3 17 1 14 14 -2 11 -11 20 -22
22 -13 3 -17 -1 -14 -14z"/>
<path d="M6530 2770 c0 -5 5 -10 10 -10 6 0 10 5 10 10 0 6 -4 10 -10 10 -5 0
-10 -4 -10 -10z"/>
<path d="M6560 2760 c0 -5 4 -10 9 -10 6 0 13 5 16 10 3 6 -1 10 -9 10 -9 0
-16 -4 -16 -10z"/>
<path d="M1480 2640 c0 -5 5 -10 10 -10 6 0 10 5 10 10 0 6 -4 10 -10 10 -5 0
-10 -4 -10 -10z"/>
<path d="M2400 2195 c0 -9 5 -15 11 -13 6 2 11 8 11 13 0 5 -5 11 -11 13 -6 2
-11 -4 -11 -13z"/>
<path d="M6130 2080 c0 -5 4 -10 9 -10 6 0 13 5 16 10 3 6 -1 10 -9 10 -9 0
-16 -4 -16 -10z"/>
<path d="M2210 1996 c0 -10 9 -16 21 -16 24 0 21 23 -4 28 -10 2 -17 -3 -17
-12z"/>
<path d="M2112 1868 c-14 -14 -16 -38 -4 -38 12 0 32 23 32 37 0 16 -12 17
-28 1z"/>
<path d="M2650 1830 c0 -5 5 -10 10 -10 6 0 10 5 10 10 0 6 -4 10 -10 10 -5 0
-10 -4 -10 -10z"/>
<path d="M3080 1625 c0 -9 5 -15 11 -13 6 2 11 8 11 13 0 5 -5 11 -11 13 -6 2
-11 -4 -11 -13z"/>
<path d="M2795 1591 c-7 -12 12 -24 25 -16 11 7 4 25 -10 25 -5 0 -11 -4 -15
-9z"/>
<path d="M5011 1415 c0 -11 6 -31 14 -45 l14 -25 1 26 c0 14 -7 34 -15 45 -14
19 -14 19 -14 -1z"/>
</g>
</svg>
